<?xml version="1.0" encoding="UTF-8"?>
<svg xmlns="http://www.w3.org/2000/svg" width="184" height="60" viewBox="0 0 184 60" fill="none">
  <path d="M58.632 8.38576L57.9368 9.07796L57.3893 8.57723L58.0849 7.87136L56.6104 6.60829L54.137 9.49883L53.8267 9.29501L54.1463 8.82781L51.9439 7.33533L51.6859 7.71253L51.2669 7.41695L52.8531 4.20347L51.3339 3.28054L50.9291 4.07465L50.089 3.58936L50.4654 2.77893L48.8867 2.0232L48.4792 2.91481L47.5833 2.49482L47.9295 1.63056L46.5552 0.952929L44.9734 4.90625L44.4924 4.76993L44.6107 4.34288L42.0425 3.63701L41.9277 4.05126L41.3731 3.91891L41.3602 0.00485357L39.8046 0.00176371L39.7864 0.789695H39.0975L39.0943 0L36.875 0.00264557L36.8773 0.817487H36.046V0.00264557H34.5059L34.5258 3.96435L34.0461 4.03891L33.9721 3.62333L31.3485 4.08964L31.4123 4.44567L30.8267 4.53699L29.2896 0.801166L27.738 1.42454L28.1871 2.38717L27.5527 2.6779L27.077 1.69233L25.0492 2.68143L25.5027 3.54568L24.8612 3.87921L24.3691 3.03481L22.9571 3.82891L24.2538 6.3877L24.6085 7.09666L24.1652 7.40151L23.846 6.97666L21.7135 8.56487L21.9738 8.90987L21.5992 9.16795L18.9197 6.2227L17.5875 7.39136L18.1195 7.93135L17.6318 8.40032L17.0843 7.88238L15.8483 9.0656L20.6651 14.5436H23.1885V14.4889H23.1938C32.3451 7.7518 42.3316 7.43769 51.2425 14.4889H51.2115V14.5436H54.2151L59.7314 9.54957L58.632 8.38576ZM5.02034 44.1646C5.13715 43.6497 5.16071 43.1181 5.08993 42.595C4.94038 42.7751 4.84878 42.9958 4.82704 43.2285C4.81058 43.5518 4.87711 43.874 5.02034 44.1646ZM11.5732 44.4443L11.1959 40.2228C11.0629 41.6831 10.8927 43.1411 10.6577 44.5904L11.1148 45.5279L11.4868 44.4492L11.5732 44.4443ZM5.01812 30.9693C5.08134 31.0317 5.11943 31.1151 5.12523 31.2035C5.13103 31.292 5.10412 31.3796 5.04959 31.4497C5.28367 31.6006 5.27923 31.8269 5.0824 32.0673C4.91768 32.262 4.70871 32.4147 4.47281 32.5129C4.43336 32.5283 4.39478 32.5433 4.35577 32.557L4.43247 33.0736C5.05313 36.2095 5.6738 39.3443 6.29447 42.4781C6.56756 43.726 6.80401 44.9785 7.0038 46.2355L7.52604 44.7196C6.90609 41.5317 6.52555 38.3022 6.38756 35.058L5.94423 35.0417L5.73232 35.0355L5.74385 34.8238C5.81465 33.3599 6.28169 31.9423 7.09557 30.7209V29.2875C6.46628 29.9216 5.76972 30.486 5.01812 30.9706V30.9693ZM15.9023 30.2554C15.577 29.9767 15.3096 29.6374 15.115 29.2566C15.0857 29.4772 15.0618 29.7 15.0449 29.9241C15.1028 30.0067 15.143 30.1002 15.1632 30.1988C15.1834 30.2974 15.1832 30.3991 15.1624 30.4976C15.3841 30.4178 15.6346 30.3353 15.9023 30.2546V30.2554ZM16.9021 34.8149C16.9677 34.702 17.0315 34.5882 17.094 34.4743C17.0485 34.4106 16.9862 34.3605 16.914 34.3296C16.7252 34.2414 16.1515 33.9048 15.9586 33.8139C15.9693 34.0271 15.9771 34.2405 15.9821 34.4541L15.9853 34.5815C16.239 34.6811 16.4983 34.7658 16.762 34.8352C16.8093 34.8336 16.8563 34.8268 16.9021 34.8149ZM4.491 49.7115L4.45552 49.7154L4.44799 49.6638L4.491 49.7115ZM9.22223 18.1316C9.38316 18.0302 9.54763 17.9331 9.70989 17.8316C9.66555 17.7809 9.60615 17.6887 9.57689 17.6614H9.56137L9.54276 17.6424V17.518C9.5064 17.518 9.52457 17.4443 9.52457 17.4262H9.5064C9.4708 17.3506 9.44602 17.2704 9.4328 17.188C9.41507 17.188 9.39602 17.1346 9.3805 17.0781C9.25415 17.0737 9.12912 17.068 9.00322 17.0614H8.98505C6.52633 16.7464 4.70424 13.1791 7.3261 11.7232L7.3425 11.7144L7.35979 11.7082C7.78483 11.5591 8.24834 11.5591 8.67338 11.7082L8.692 11.7144L8.70884 11.7245C8.96952 11.8728 9.21824 11.9994 9.46251 12.1075V11.7351C9.46251 10.251 13.0034 9.99338 13.0034 11.5988V12.0841C13.346 11.9167 13.6761 11.7251 13.9911 11.5106L14.0009 11.5039L14.0111 11.4991C14.2368 11.3894 14.487 11.3392 14.7378 11.3531C14.9885 11.3671 15.2315 11.4449 15.4435 11.5789L15.4564 11.5851L15.4683 11.5939C17.4584 13.0167 16.3186 16.6828 13.9987 16.8906C13.7154 16.9162 13.4308 16.9414 13.1462 16.9639C13.1456 16.9715 13.1456 16.9792 13.1462 16.9868L13.1085 17.023C13.058 17.3184 12.9248 17.5937 12.7241 17.8171L12.7383 17.8259C12.8744 17.9141 13.0362 17.9627 13.1785 18.0553C14.8219 18.9681 17.0852 19.3594 17.5165 21.5031V21.5106V21.5181C17.686 22.9636 17.707 24.4226 17.579 25.8724C17.5201 26.7424 17.4106 27.8294 17.6983 28.6663C17.8228 29.0255 18.0217 29.3547 18.2822 29.6325L18.2977 29.6224C18.5003 29.4953 18.7437 29.3506 18.9698 29.4799C19.0504 29.3991 19.1516 29.3418 19.2625 29.3141C19.3735 29.2864 19.4899 29.2894 19.5993 29.3228L19.6436 29.3405C19.6813 29.3015 19.728 29.2721 19.7795 29.2548C19.831 29.2375 19.886 29.2329 19.9398 29.2412C19.9938 29.2412 20.0472 29.2527 20.0964 29.2748C20.1457 29.2969 20.1896 29.3292 20.2254 29.3695C20.2611 29.4098 20.2879 29.4572 20.3038 29.5085C20.3198 29.5599 20.3246 29.614 20.3179 29.6674C20.2528 30.7098 18.7769 31.3319 17.8738 31.3169L17.5897 31.3116C17.4225 31.3425 17.2518 31.3663 17.0825 31.3826C16.8515 31.4056 16.6205 31.4157 16.3949 31.417C16.1127 31.4184 15.8307 31.4052 15.5499 31.3773C15.7986 32.1633 15.9359 32.98 15.9578 33.8038L16.7203 32.55C17.0399 32.0206 18.0219 31.3703 18.1469 32.4022C17.989 33.0125 17.7678 33.6047 17.4868 34.1695L17.5484 34.267C17.8059 34.3879 18.0627 34.5092 18.3189 34.631C19.0376 34.9707 18.8137 35.7268 18.0188 35.759H17.9962L17.9745 35.7551L16.7908 35.5512L16.7021 35.5354C16.3772 36.0321 16.0216 36.517 15.6443 36.9912C15.5771 39.5577 15.1982 42.1066 14.5156 44.5824L15.4249 46.4424H14.6087C14.6087 47.6243 14.3427 49.231 14.2292 50.4054C13.3707 50.1395 12.4973 49.9236 11.6136 49.7587L11.3666 46.4424H10.746C10.7302 47.4839 10.6562 48.5237 10.5243 49.5571L10.5221 49.5782C9.61457 49.4459 8.69644 49.3612 7.76766 49.3135H7.7588L7.5052 46.4459H7.03527C7.18379 47.3755 7.31412 48.3081 7.43427 49.2438L7.44048 49.2981C6.58972 49.2624 5.73055 49.254 4.86162 49.2699L4.39612 49.2791C4.2404 47.8342 4.38542 46.3728 4.82216 44.9861C4.4445 44.4603 4.2482 43.827 4.26268 43.1808C4.2882 42.9373 4.36297 42.7014 4.48252 42.4874C4.60206 42.2733 4.76389 42.0856 4.95826 41.9354L3.294 33.5249L3.07233 32.5504C2.62402 31.8096 2.37017 30.9685 2.33418 30.1046L2.32798 30.0304L2.36744 29.974C1.88657 29.3772 1.40585 28.7794 0.925282 28.1806L0.737305 27.9468L1.0237 27.8533C1.9473 27.5515 2.8715 27.2502 3.79629 26.9493L4.07914 26.8562L4.06983 27.1531L4.03569 28.2516C4.43159 27.7946 4.74192 27.3005 4.59917 26.8055C4.16381 25.2914 4.45464 23.6626 4.5074 22.1176C4.56148 20.559 5.461 19.7079 6.60878 19.1269L6.59505 19.0894L6.51658 18.8777L6.73513 18.8172C7.39658 18.6319 8.01636 18.3121 8.68047 18.1264L8.87864 18.0708L8.92829 18.2371L9.22134 18.1365L9.22223 18.1316ZM67.1289 28.7255C67.0504 28.4375 67.0058 28.1414 66.9959 27.8431C66.5157 27.5144 66.1002 27.1008 65.7701 26.6228L65.767 26.6603L65.7634 26.6846L65.7559 26.708C65.4341 27.6406 65.2683 28.6195 65.2651 29.6056C65.602 29.4013 65.9507 29.2167 66.3092 29.0528C66.5793 28.9307 66.853 28.8212 67.1302 28.7241L67.1289 28.7255ZM65.587 31.807L65.6827 32.1675L65.6455 32.2001C66.0917 34.8493 66.2975 37.533 66.2604 40.2188L66.349 40.2135L66.3934 40.2338C66.4817 40.2633 66.5625 40.3115 66.6303 40.375C66.6981 40.4386 66.7512 40.516 66.7861 40.602C66.8209 40.6879 66.8366 40.7804 66.8322 40.8729C66.8277 40.9655 66.803 41.056 66.76 41.1382L66.7259 41.207L66.6563 41.2379C66.6221 41.2534 66.4962 41.3129 66.479 41.3522C66.489 41.3831 66.5064 41.4113 66.5295 41.4342C66.6548 41.4982 66.7613 41.5934 66.8386 41.7106C66.9158 41.8279 66.9611 41.963 66.97 42.1029C66.979 42.2428 66.9512 42.3826 66.8895 42.5086C66.8279 42.6346 66.7343 42.7425 66.6181 42.8217C66.5004 42.9293 66.3514 42.9968 66.1926 43.0145C66.1886 43.0277 66.1859 43.0405 66.1828 43.0538C65.9508 43.6349 65.8856 44.2688 65.9944 44.8846C66.1078 45.8297 66.0642 46.7869 65.8654 47.7178C65.7734 48.302 65.7195 48.8914 65.704 49.4825C64.738 49.5099 63.7844 49.5668 62.841 49.6696C62.6972 47.4666 62.6725 45.2576 62.7669 43.052C62.6188 43.0458 62.4741 43.0053 62.3444 42.9337C62.2147 42.8621 62.1036 42.7614 62.0199 42.6395C61.9804 42.5327 61.9681 42.4179 61.9842 42.3052C62.0003 42.1926 62.0442 42.0857 62.1121 41.9941C62.1683 41.9224 62.2056 41.8379 62.2206 41.7482C62.2355 41.6585 62.2277 41.5665 62.1977 41.4806C62.1113 41.4128 62.0419 41.3259 61.995 41.2268C61.9482 41.1277 61.9251 41.0192 61.9277 40.9097C61.9303 40.8002 61.9584 40.6929 62.0099 40.5961C62.0614 40.4993 62.1348 40.4157 62.2243 40.3521C61.9257 39.38 61.7447 38.376 61.6852 37.3614C61.4825 38.3265 61.3465 39.3044 61.2782 40.2881L61.3314 40.2969L61.3957 40.3088L61.44 40.356C61.5272 40.4259 61.5981 40.5138 61.6478 40.6136C61.6975 40.7134 61.7249 40.8227 61.7281 40.934C61.7313 41.0454 61.7101 41.1561 61.6661 41.2585C61.6221 41.3609 61.5563 41.4527 61.4733 41.5273C61.4419 41.6229 61.4333 41.7245 61.448 41.824C61.4627 41.9235 61.5003 42.0183 61.558 42.1008C61.6257 42.2015 61.6671 42.3174 61.6785 42.4381C61.6899 42.5587 61.6709 42.6803 61.6231 42.7917C61.5452 42.9058 61.4423 43.0009 61.3221 43.0697C61.2019 43.1384 61.0676 43.1792 60.9293 43.1888C61.0639 45.4575 60.9828 47.7337 60.6873 49.9872C59.8373 50.1509 58.9985 50.3675 58.1758 50.6357C58.253 49.7516 58.2172 48.8613 58.0694 47.9861C57.8866 47.1294 57.8466 46.2487 57.951 45.3792C58.0507 44.8162 57.9915 44.2368 57.7799 43.7054C57.713 43.4582 57.6961 43.2003 57.7302 42.9466C57.5137 42.8805 57.3154 42.7653 57.1512 42.61C56.6064 42.1931 56.844 41.8044 57.3117 41.5048C57.4079 41.3787 57.353 41.3447 57.1947 41.2662L57.1433 41.241L57.1118 41.1938C57.0566 41.131 57.0168 41.0564 56.9953 40.9757C56.9739 40.895 56.9714 40.8106 56.9882 40.7288C57.0049 40.6471 57.0404 40.5703 57.0918 40.5044C57.1432 40.4385 57.2092 40.3853 57.2847 40.349V40.3168C55.3429 39.4252 55.796 36.2615 55.7126 34.5401L55.7029 34.3416L55.9015 34.3235L56.1768 34.2979V32.0625C56.1762 32.0445 56.1792 32.0266 56.1855 32.0098C56.1919 31.993 56.2016 31.9776 56.2139 31.9644C56.2263 31.9513 56.2411 31.9408 56.2575 31.9334C56.274 31.926 56.2918 31.9219 56.3098 31.9213H56.9846C57.0209 31.9227 57.0553 31.9383 57.0802 31.9647C57.1051 31.9911 57.1185 32.0263 57.1175 32.0625V34.2096L57.3082 34.192C57.4015 33.2636 57.5897 32.3471 57.8699 31.4567L57.8792 31.3985C57.9277 31.05 57.9761 30.7013 58.0246 30.3525L58.0432 30.214L58.0525 30.2118C58.0954 29.5106 57.9467 28.811 57.6221 28.1872L56.5115 30.5793L56.4929 30.6234L56.4561 30.6529C55.3265 31.5855 54.1472 32.4568 52.9232 33.2629L52.8115 33.3375V30.4698C53.2929 29.6137 53.9176 28.8456 54.6588 28.1987C54.6387 26.6684 55.018 25.1591 55.7596 23.8183C55.8855 21.8485 56.6463 20.4213 58.3779 20.0971L58.3753 20.0913L58.4613 20.0829C58.6311 20.0553 58.8023 20.0381 58.9742 20.0313L59.1852 20.0101L59.371 19.9912L59.379 20.0313L59.438 20.034C59.6036 19.9607 59.748 19.847 59.8578 19.7035C59.9677 19.56 60.0395 19.3913 60.0666 19.213C59.9561 19.0595 59.8652 18.8929 59.7962 18.7171L59.6445 18.673C58.3234 18.2671 56.8959 17.2537 56.8959 15.737C56.8958 15.5721 56.9138 15.4078 56.9495 15.2468C57.3676 13.3436 59.7868 12.5275 61.5118 12.5275C63.2369 12.5275 65.6543 13.3436 66.0733 15.2468C66.1083 15.4079 66.126 15.5722 66.1261 15.737C66.1261 17.3322 64.558 18.3611 63.1681 18.7334L62.997 18.7797C62.9851 18.796 62.9744 18.8115 62.9629 18.8265H62.9456C62.9283 18.8437 62.9097 18.9147 62.8928 18.9302L62.9301 18.9888C63.1322 19.3165 63.3348 19.6444 63.5379 19.9726C63.8362 20.0207 64.1249 20.0776 64.3988 20.1491L64.4596 20.1597V20.165C66.0081 20.5748 67.1072 21.4166 67.108 23.3242C67.5973 23.7402 67.9904 24.2567 68.2602 24.8381C68.53 25.4195 68.6702 26.0521 68.6712 26.6925C69.1921 27.0052 69.6335 27.433 69.9613 27.9428C69.9903 27.9458 70.019 27.9507 70.0473 27.9574C70.1838 27.9893 70.3074 28.0614 70.402 28.1643C70.4872 28.255 70.5391 28.3718 70.5492 28.4956C70.5507 28.533 70.5471 28.5704 70.5385 28.6068C70.516 28.6961 70.4648 28.7758 70.3927 28.8335C70.4713 28.8692 70.54 28.9232 70.5931 28.991C70.6353 29.0469 70.6566 29.1157 70.6534 29.1856C70.6496 29.2543 70.6218 29.3195 70.5749 29.37C70.487 29.4605 70.3706 29.5183 70.245 29.5337C70.2684 29.5673 70.2856 29.6048 70.2956 29.6444C70.3126 29.7118 70.3066 29.7829 70.2783 29.8465C70.25 29.9114 70.2039 29.967 70.1453 30.0071C70.0271 30.0842 69.8876 30.1228 69.7463 30.1174V30.1297C69.7564 30.1947 69.7426 30.2611 69.7073 30.3168C69.6716 30.3737 69.6206 30.4195 69.5601 30.4491C69.4886 30.4854 69.4102 30.5065 69.33 30.5109C69.3342 30.5277 69.3375 30.5448 69.3398 30.5621V30.566C69.3456 30.6302 69.33 30.6946 69.2954 30.7491C69.259 30.8048 69.209 30.8503 69.15 30.8815C68.9859 30.9591 68.798 30.9706 68.6256 30.9137C68.584 30.9016 68.5433 30.8869 68.5037 30.8695C68.2405 31.1089 67.9413 31.3058 67.617 31.4532C66.9742 31.7276 66.2758 31.8485 65.5777 31.8061L65.587 31.807Z" fill="#373435"></path>
  <path d="M65.2641 32.2471C63.1825 33.8715 60.5614 34.9597 57.401 35.5118C57.4161 37.0618 57.4309 38.6113 57.4453 40.1605C55.5439 39.3782 55.997 36.1762 55.9189 34.528C56.3969 34.4838 56.877 34.4397 57.3562 34.3956C59.2941 33.8921 61.153 33.125 62.8802 32.116C61.2556 32.1319 59.6383 31.8984 58.0851 31.4238C58.1345 31.0753 58.1829 30.7269 58.2305 30.3787L58.2509 30.3738C58.2509 30.4034 58.2469 30.433 58.2442 30.4621C59.9924 30.8461 61.7877 30.9726 63.5727 30.8375C63.4495 30.9428 63.3264 31.0524 63.2034 31.1662L63.1959 31.1737H63.1937L63.1906 31.1768H63.1884V31.179L63.1857 31.1834V31.186V31.1891V31.1913V31.194V31.1966V31.2024V31.2063V31.2174V31.2266V31.2288V31.2496V31.2531V31.2663V31.2712L63.1884 31.2813L63.191 31.2888V31.2915V31.295V31.2972L63.1932 31.3007V31.303L63.1959 31.3078C63.2035 31.3179 63.2124 31.327 63.2225 31.3347L63.2336 31.3418C63.2406 31.3458 63.2478 31.3494 63.2553 31.3524C63.263 31.3549 63.2708 31.357 63.2788 31.3585C63.9626 31.5564 64.665 31.6843 65.3749 31.7402L65.4538 32.0406L65.2765 32.1977L65.2641 32.2471ZM61.5112 12.7285C62.0707 12.7269 62.6277 12.8011 63.1671 12.9491C64.7768 13.3965 65.9158 14.4752 65.9158 15.7285C65.9158 16.9974 64.7507 18.0862 63.1117 18.5243C63.1626 18.3857 63.2003 18.2371 63.2407 18.121C63.3976 17.6331 59.5512 16.9188 59.4985 17.1275C59.4557 17.5664 59.5216 18.009 59.6904 18.4166C59.6962 18.4325 59.7011 18.4493 59.7055 18.466C58.1738 17.9953 57.1027 16.9453 57.1027 15.7285C57.1027 14.075 59.0822 12.7285 61.5099 12.7285H61.5112Z" fill="#727376"></path>
  <path d="M63.3824 17.308C63.3824 18.7118 62.5112 19.8501 61.4366 19.8501C60.3619 19.8501 59.4912 18.7118 59.4912 17.308C59.4912 15.9042 60.3619 14.7668 61.4366 14.7668C62.5112 14.7668 63.3824 15.9051 63.3824 17.308Z" fill="#313536"></path>
  <path fill-rule="evenodd" clip-rule="evenodd" d="M59.2144 20.2188C59.0313 20.2378 58.8487 20.255 58.6647 20.2735C59.3483 22.3188 59.4117 24.0235 58.1158 24.9747C57.9509 25.9859 57.786 26.896 57.6211 27.7625C58.0854 28.4747 58.313 29.3141 58.2719 30.162L58.49 30.1073L58.4754 30.3098C60.2398 30.6647 62.0456 30.771 63.8398 30.6257C64.2257 30.3054 64.6311 30.0091 65.0536 29.7385C65.0452 28.6851 65.2162 27.638 65.5595 26.6415C65.6233 26.0403 65.6875 25.4391 65.7519 24.8379C64.3368 24.2772 64.0446 22.5641 64.2414 20.3278C64.0034 20.2837 63.7644 20.2395 63.5277 20.1919C63.2173 23.7967 59.8812 23.2572 59.2153 20.2188H59.2144ZM69.1793 29.0212L69.1714 29.0278L69.1403 29.0507L69.127 29.0609L69.1026 29.0794L68.9927 29.1623L68.9874 29.1663C68.9222 29.2131 68.857 29.2612 68.7923 29.3062L68.7657 29.3256L68.7528 29.334L68.6739 29.3891L68.6349 29.4156L68.6269 29.42L68.595 29.4416L68.5813 29.4513L68.5551 29.4685L68.5347 29.4817L68.4904 29.5113H68.4877L68.4744 29.5192L68.4403 29.5417L68.4345 29.5457L68.3946 29.5717L68.3552 29.5973L68.3476 29.6009L68.3148 29.6229L68.3006 29.6322L68.274 29.6485L68.0692 29.7725L68.0617 29.7769L68.0271 29.7967L68.0134 29.8042L67.9455 29.8448L67.9163 29.8612L67.9039 29.8709L67.8675 29.8903L67.8604 29.8942L67.8196 29.9181L67.7779 29.941L67.7695 29.9445L67.7358 29.9648L67.7212 29.9723L67.6928 29.9873L67.6715 29.9988L67.6503 30.0094L67.6223 30.0248L67.6086 30.0323C67.5372 30.0703 67.4658 30.1069 67.3936 30.1431L67.3723 30.1537L67.3515 30.1647L67.3218 30.1792L67.3076 30.1859L67.2708 30.204L67.2641 30.2066L67.2198 30.2287L67.1688 30.2529L67.1338 30.2706L67.1183 30.2776L67.089 30.2909L67.0677 30.3015L67.0451 30.3107L67.0163 30.3248L67.0021 30.3319L66.9649 30.3482L66.9573 30.3513L66.913 30.3712L66.8243 30.41L66.807 30.4175L66.7033 30.4616L66.6935 30.4656C66.5929 30.5097 66.4905 30.5507 66.3881 30.5917L66.3438 30.6085L66.3358 30.612L66.2294 30.6535L66.2094 30.6597L66.1757 30.6725C65.9795 30.7466 65.78 30.8162 65.5772 30.8812H65.575L65.5307 30.8948L65.524 30.8975L65.485 30.9094L65.4376 30.9244L65.4145 30.9319L65.3586 30.9491L65.344 30.9526C65.2753 30.9738 65.2048 30.9941 65.1334 31.0148L65.1108 31.0206L65.0785 31.0303L65.0638 31.0351L65.0195 31.0462H65.016C64.8475 31.0934 64.6768 31.1344 64.5061 31.1785L64.4901 31.1829C64.3128 31.227 64.1355 31.2641 63.9533 31.3003C65.4376 31.6387 66.6066 31.6148 67.5124 31.2037C67.792 31.0759 68.0514 30.9082 68.2825 30.706C68.2564 30.6753 68.2357 30.6404 68.2213 30.6028C68.2114 30.5753 68.2052 30.5467 68.2027 30.5176C68.2008 30.4922 68.2024 30.4667 68.2075 30.4417V30.4369L68.2102 30.4307V30.4281C68.2205 30.3799 68.2434 30.3354 68.2767 30.2989C68.3099 30.2625 68.3523 30.2355 68.3995 30.2207C68.4644 30.1992 68.5323 30.1877 68.6008 30.1867C68.5802 30.1456 68.5694 30.1003 68.5693 30.0544C68.5691 30.0345 68.5712 30.0147 68.5755 29.9953V29.99C68.5865 29.9415 68.6105 29.897 68.6449 29.861C68.6793 29.825 68.7229 29.799 68.771 29.7857C68.834 29.7667 68.8993 29.7561 68.9652 29.7544C68.9363 29.7057 68.9196 29.6507 68.9164 29.5942V29.5823C68.9166 29.5617 68.9191 29.5411 68.924 29.521V29.5144V29.5104C68.9364 29.4555 68.9636 29.4049 69.0026 29.3641C69.0417 29.3233 69.0911 29.2939 69.1457 29.2788C69.1889 29.2649 69.2335 29.2553 69.2786 29.2501C69.248 29.2163 69.2242 29.1769 69.2086 29.1341L69.2059 29.1266C69.1966 29.1021 69.1917 29.0761 69.1913 29.0498C69.1895 29.0367 69.1895 29.0233 69.1913 29.0101L69.1789 29.0198L69.1793 29.0212Z" fill="#E6E7E8"></path>
  <path d="M57.6494 40.2604L60.8414 40.4112L60.8534 40.2348L61.0622 40.2617C61.1458 38.9105 61.374 37.572 61.7432 36.269C61.6182 36.1442 61.4927 36.0198 61.3686 35.8945C61.5353 36.0339 61.7021 36.1726 61.8691 36.3105C62.5784 35.9367 63.2878 35.563 63.9971 35.1895C63.2742 35.6051 62.5501 36.0204 61.8248 36.4354C61.8496 37.7378 62.0455 39.0314 62.4073 40.2833L62.4517 40.2789L62.6166 40.2568L62.6733 40.4134C62.6748 40.4169 62.676 40.4204 62.6769 40.424C63.7285 40.3861 64.7792 40.3323 65.8286 40.2917V40.2409L66.0369 40.2308C66.0708 37.5959 65.8744 34.963 65.45 32.362L65.3892 32.4158C63.1007 34.1208 60.4293 35.2455 57.606 35.6924C57.6202 37.1836 57.6349 38.6748 57.6503 40.1659V40.2604H57.6494ZM58.0276 31.6318C57.7776 32.4493 57.6058 33.2885 57.5146 34.1382C59.1194 33.7008 60.67 33.0861 62.1373 32.3055C60.7422 32.2771 59.3582 32.0502 58.0276 31.6318Z" fill="#56A9CD"></path>
  <path d="M61.2523 40.5029C61.2159 40.4958 61.1321 40.4839 61.0133 40.4676L61.0018 40.6264L57.4994 40.4636C57.1798 40.5805 57.0441 40.7724 57.2476 41.0843C57.6023 41.2564 57.5903 41.4554 57.4147 41.6654C57.06 41.8859 56.8034 42.1206 57.2476 42.4546C57.5527 42.709 57.9342 42.8549 58.332 42.8693C58.8569 42.8927 62.0418 43.4949 61.3374 42.2076C61.2594 42.0928 61.211 41.9607 61.1964 41.8229C61.1818 41.6851 61.2015 41.5459 61.2536 41.4174C61.3243 41.3639 61.3815 41.2949 61.421 41.2157C61.4604 41.1365 61.4809 41.0494 61.4809 40.961C61.4809 40.8727 61.4604 40.7855 61.421 40.7063C61.3815 40.6272 61.3243 40.5581 61.2536 40.5046L61.2523 40.5029ZM62.3322 40.4976L62.4462 40.483C62.4657 40.5333 62.4843 40.5845 62.5029 40.6356C63.672 40.5946 64.8407 40.5333 66.0093 40.4927V40.438L66.2656 40.4243C66.3281 40.4425 66.3858 40.4743 66.4345 40.5175C66.4831 40.5607 66.5214 40.6142 66.5467 40.674C66.5719 40.7338 66.5834 40.7985 66.5803 40.8633C66.5773 40.9281 66.5597 40.9914 66.5289 41.0486C66.1591 41.2105 66.1693 41.3984 66.3551 41.5987C66.4553 41.642 66.5421 41.7114 66.6061 41.7995C66.6701 41.8876 66.7091 41.9913 66.719 42.0996C66.7289 42.2079 66.7093 42.3169 66.6623 42.4151C66.6152 42.5132 66.5425 42.597 66.4517 42.6576C66.0727 42.9743 65.7721 42.6796 65.3926 42.7374C64.8447 42.7608 61.5081 43.329 62.2449 42.1105C62.3257 42.0053 62.3766 41.8804 62.3922 41.7489C62.4078 41.6174 62.3876 41.4842 62.3336 41.3631C62.2606 41.3168 62.2006 41.2528 62.159 41.1773C62.1174 41.1017 62.0956 41.0169 62.0956 40.9308C62.0956 40.8446 62.1174 40.7599 62.159 40.6843C62.2006 40.6088 62.2606 40.5448 62.3336 40.4984L62.3322 40.4976Z" fill="#56A9CD"></path>
  <path d="M69.5312 28.9407C69.5188 28.9433 69.5033 28.9482 69.4914 28.9508C69.4686 28.9547 69.4472 28.9646 69.4296 28.9795C69.412 28.9944 69.3987 29.0137 69.3912 29.0355C69.3905 29.0433 69.3905 29.0511 69.3912 29.0589C69.3923 29.0681 69.3941 29.0773 69.3965 29.0862C69.4203 29.1308 69.4527 29.1703 69.4919 29.2024C69.5311 29.2345 69.5762 29.2586 69.6248 29.2733C69.6453 29.2826 69.662 29.2988 69.6719 29.319C69.6819 29.3392 69.6844 29.3622 69.6792 29.3841C69.674 29.406 69.6613 29.4254 69.6433 29.439C69.6253 29.4525 69.603 29.4595 69.5805 29.4586H69.5778C69.4574 29.4425 69.335 29.4497 69.2174 29.4798C69.1944 29.4852 69.1733 29.4968 69.1564 29.5133C69.1395 29.5298 69.1275 29.5505 69.1216 29.5733V29.5759C69.1211 29.5833 69.1211 29.5907 69.1216 29.598V29.6046C69.1237 29.6352 69.1342 29.6646 69.1518 29.6898C69.1821 29.7329 69.2209 29.7695 69.2657 29.7974C69.2871 29.8112 69.3021 29.8329 69.3075 29.8577C69.3129 29.8825 69.3082 29.9084 69.2945 29.9298C69.2843 29.9455 69.2698 29.958 69.2526 29.9658C69.2355 29.9737 69.2165 29.9764 69.1979 29.9739C69.1849 29.9712 69.1717 29.9699 69.1584 29.9699H69.1513H69.1455C69.0449 29.9568 68.9428 29.962 68.8441 29.9853C68.8275 29.9892 68.8124 29.9975 68.8001 30.0092C68.7879 30.0209 68.779 30.0357 68.7745 30.052C68.7727 30.0575 68.772 30.0633 68.7723 30.0692C68.7726 30.0882 68.778 30.1067 68.7878 30.123C68.8141 30.1661 68.8512 30.2017 68.8955 30.2262C68.9171 30.2398 68.9326 30.2612 68.9387 30.2858C68.9448 30.3105 68.9411 30.3366 68.9283 30.3586C68.9173 30.3759 68.9011 30.3894 68.8821 30.3973C68.8631 30.4052 68.8421 30.4071 68.8219 30.4027H68.8006H68.7909L68.7576 30.3996H68.755C68.6605 30.3878 68.5647 30.3949 68.473 30.4203C68.4562 30.4246 68.4409 30.4334 68.4288 30.4457C68.4166 30.4579 68.408 30.4733 68.4039 30.49V30.4936V30.4962C68.403 30.5038 68.403 30.5115 68.4039 30.5192C68.4046 30.5299 68.407 30.5405 68.411 30.5505C68.438 30.6237 68.5284 30.6974 68.6942 30.7433C68.818 30.7867 68.9537 30.7815 69.0737 30.7287C69.103 30.7133 69.128 30.6909 69.1464 30.6634C69.1581 30.6437 69.1638 30.621 69.1628 30.5981C69.1592 30.5774 69.1513 30.5576 69.1396 30.5401C69.128 30.5226 69.1128 30.5076 69.095 30.4962C69.0751 30.481 69.062 30.4586 69.0585 30.4338C69.055 30.4091 69.0614 30.384 69.0764 30.3639C69.0867 30.3496 69.1009 30.3385 69.1173 30.332C69.1337 30.3255 69.1517 30.3239 69.1691 30.3273C69.2746 30.3511 69.3851 30.3405 69.4843 30.2973C69.5137 30.283 69.5387 30.2612 69.557 30.2342C69.5679 30.216 69.5727 30.1948 69.5707 30.1737C69.5629 30.1417 69.5445 30.1133 69.5184 30.093C69.4994 30.0757 69.488 30.0517 69.4866 30.0261C69.4853 30.0005 69.4942 29.9754 69.5113 29.9562C69.5221 29.9438 69.536 29.9345 69.5515 29.929C69.5671 29.9236 69.5838 29.9223 69.6 29.9253C69.674 29.9454 69.7513 29.9506 69.8274 29.9408C69.9035 29.9309 69.9769 29.9062 70.0433 29.868C70.0731 29.8484 70.0966 29.8207 70.1111 29.7881C70.1218 29.7628 70.1243 29.7347 70.1182 29.7079C70.1051 29.6723 70.0845 29.6399 70.0578 29.6128C70.0311 29.5857 69.999 29.5646 69.9635 29.5508C69.9521 29.5451 69.9419 29.5373 69.9336 29.5276C69.9253 29.518 69.9189 29.5068 69.915 29.4948C69.9111 29.4827 69.9096 29.4699 69.9107 29.4573C69.9118 29.4446 69.9154 29.4323 69.9214 29.4211C69.93 29.4042 69.9435 29.3903 69.96 29.3809C69.9766 29.3716 69.9955 29.3673 70.0145 29.3686C70.0891 29.383 70.1659 29.3809 70.2395 29.3623C70.3132 29.3438 70.3818 29.3093 70.4405 29.2614C70.4578 29.2431 70.4683 29.2194 70.4702 29.1943C70.4713 29.1685 70.4625 29.1431 70.4458 29.1233C70.3752 29.0433 70.2794 28.9895 70.1741 28.9707C70.115 28.9876 70.0544 28.9985 69.9932 29.0033C69.9399 29.0075 69.8864 29.0075 69.8332 29.0033C69.7773 28.9986 69.7219 28.9898 69.6673 28.9768H69.6625H69.6589C69.6146 28.9662 69.5738 28.9539 69.5352 28.9415L69.5312 28.9407ZM65.8073 26.328C66.1648 26.9003 66.6441 27.3876 67.2113 27.7557C67.209 28.0686 67.2502 28.3804 67.3337 28.6821C67.9255 28.4922 68.5328 28.3537 69.1487 28.2683C69.1913 28.1733 69.267 28.0968 69.3619 28.053C69.4805 28.0011 69.6076 27.9712 69.7369 27.9648C69.3933 27.5084 68.9646 27.1219 68.4743 26.8266C68.4888 26.1805 68.3553 25.5397 68.084 24.9526C67.8127 24.3655 67.4108 23.8475 66.9085 23.4379C66.9444 21.5599 65.8804 20.775 64.4511 20.3939C64.3305 21.7747 64.2596 24.0441 65.8321 24.667L65.9802 24.7257L65.962 24.8815L65.8073 26.3285V26.328ZM58.4568 20.3184C57.0023 20.5739 56.1098 21.6706 55.9786 23.9038C55.2224 25.2555 54.8432 26.7839 54.8805 28.3305C54.1933 28.796 53.5061 29.7771 52.8203 30.8995V33.1132C54.04 32.3144 55.2135 31.4478 56.335 30.5174L57.5085 27.9891C57.4899 27.9573 57.4704 27.9268 57.4505 27.896L57.4061 27.8267L57.4225 27.7451C57.5981 26.8198 57.7623 25.8926 57.9151 24.9635L57.9288 24.8801L57.998 24.8298C59.4118 23.79 58.9418 21.7672 58.4723 20.3612L58.4577 20.3171L58.4568 20.3184ZM60.7209 43.0325C60.8726 45.3761 60.7927 47.7288 60.4824 50.0568C59.781 50.2003 59.0873 50.3789 58.4041 50.592C58.4711 49.7205 58.4318 48.8441 58.287 47.982C58.1073 47.1477 58.067 46.2896 58.1678 45.4422C58.2819 44.8467 58.2203 44.231 57.9904 43.6696C57.925 43.3911 57.9167 43.1024 57.9661 42.8207C58.1048 42.8507 58.2436 42.8688 58.3823 42.8918C59.1563 43.0055 59.9388 43.0525 60.7209 43.0325ZM62.9881 42.8918C62.8906 45.1505 62.9137 47.4128 63.0573 49.669C63.8664 49.5879 64.6816 49.5367 65.5053 49.5106C65.52 48.9076 65.5744 48.3062 65.6681 47.7102C65.8647 46.8017 65.9083 45.8669 65.7971 44.9441C65.6747 44.2957 65.7425 43.6259 65.9926 43.0149C66.0108 42.9523 66.0249 42.8887 66.0347 42.8243C65.8413 42.7761 65.6422 42.7542 65.4428 42.759C64.6293 42.867 63.8086 42.9113 62.9881 42.8913V42.8918ZM62.7767 19.1692C61.7002 20.5064 60.274 19.3973 60.2457 19.3836L60.2528 19.4127C60.2018 19.6043 60.1066 19.7814 59.9747 19.9298C59.8427 20.0783 59.6777 20.194 59.4929 20.2677L59.4392 20.265C60.0865 23.0091 63.0355 23.5346 63.3224 20.1958L63.3361 20.0484L62.7846 19.1577L62.7767 19.1692ZM69.8549 28.1501C69.7161 28.148 69.5782 28.1734 69.4492 28.2246C69.4118 28.2423 69.3792 28.2685 69.3541 28.3012C69.3289 28.3339 69.312 28.3721 69.3047 28.4126V28.4152C69.2937 28.4518 69.2928 28.4906 69.3021 28.5276C69.3114 28.5647 69.3305 28.5985 69.3575 28.6257C69.4124 28.6771 69.4779 28.716 69.5494 28.7399C69.6672 28.7266 69.786 28.725 69.9041 28.7351C69.9915 28.7396 70.0785 28.7516 70.1639 28.7708C70.2098 28.7574 70.2517 28.7331 70.2859 28.6998C70.3201 28.6666 70.3457 28.6255 70.3603 28.5802C70.3648 28.5616 70.3665 28.5424 70.3652 28.5233C70.3582 28.4439 70.3241 28.3693 70.2685 28.312C70.2008 28.2385 70.1124 28.1869 70.0149 28.1638C69.9642 28.1522 69.9122 28.1475 69.8602 28.1496L69.8549 28.1501Z" fill="#D7BDA3"></path>
  <path d="M6.59863 33.8962C6.7324 37.0441 7.09646 40.1781 7.68791 43.2734L10.4841 43.1772C10.9389 40.3074 11.0684 37.4609 11.2439 34.5906C11.0404 34.3515 11.1167 34.1494 10.9127 33.9076C11.0724 34.051 11.2257 34.3113 11.4403 34.5032C11.3756 35.6534 11.4448 36.8415 11.3823 37.9925L11.7813 43.2654L14.3659 43.1772C14.985 40.8657 15.3384 38.4916 15.4193 36.1007L15.2863 36.2657C15.3226 35.3622 15.3596 34.4585 15.3971 33.5547C15.4052 33.5404 15.4124 33.5257 15.4188 33.5106C13.7993 33.5693 11.7835 33.5812 11.0298 32C10.3839 33.8529 8.38396 33.9474 6.59908 33.8971L6.59863 33.8962Z" fill="#56A9CD"></path>
  <path fill-rule="evenodd" clip-rule="evenodd" d="M11.355 18.7327L12.9559 20.163L13.1939 18.3542L13.3043 18.3599C13.225 18.3184 13.1465 18.2756 13.0676 18.2315C12.9248 18.1376 12.7643 18.0939 12.6203 17.9981C12.1933 18.1649 11.7779 18.5505 11.355 18.734V18.7327ZM9.61131 18.1384L9.80728 20.0699L11.1816 18.734V18.6996C10.7569 18.5051 10.2555 18.1534 9.84318 17.9968C9.7758 18.0409 9.69511 18.0886 9.61353 18.1384H9.61131ZM9.31516 18.3207C9.20832 18.3586 9.0997 18.3965 8.9902 18.4336C9.17137 19.0327 9.36881 19.6245 9.58249 20.2089L9.4464 18.2399C9.40029 18.2682 9.35506 18.2955 9.31516 18.3207ZM13.264 20.6377L13.2556 20.8287L13.1177 20.6942L11.3443 18.9634L11.2499 24.037C12.2324 25.9763 13.4004 27.8168 14.7376 29.5332C14.8148 28.6949 15.0582 28.0707 15.1725 27.1636C15.3104 26.0633 15.3663 24.7486 15.4895 22.7439C15.349 25.0265 15.5285 26.8173 15.0732 28.732C14.8813 29.542 15.7334 29.8843 16.1426 30.1879C16.4405 30.104 16.7593 30.022 17.0856 29.9514C17.4478 29.8724 17.7949 29.8071 18.111 29.7533C16.515 27.9886 17.8729 25.852 17.3081 21.5434C16.9233 19.6318 15.0781 19.2679 13.3624 18.3899L13.2622 20.6399L13.264 20.6377ZM9.76161 20.6549L9.75318 20.6646C10.1492 21.7032 10.5939 22.7179 11.0872 23.7087L11.1758 19.004L9.76249 20.6558L9.76161 20.6549ZM4.71997 22.1209C4.66721 23.6461 4.38125 25.2771 4.80286 26.7445C4.99261 27.4032 4.52047 28.0398 4.0226 28.5829L3.98535 29.3527C4.66588 29.3324 4.70002 29.5292 4.70622 30.1027C5.00237 30.2187 5.10966 30.2946 5.03341 30.7102C5.78687 30.219 6.4798 29.6415 7.09803 28.9896V28.9887H7.10246C7.1734 28.9115 7.24433 28.8317 7.31482 28.7509C7.27315 27.6251 7.0169 26.4268 6.87902 25.3067C6.80897 24.4832 6.73878 23.6607 6.66843 22.8392C6.73892 23.5636 7.46113 27.2443 7.64378 28.3592C7.64378 28.5692 7.64599 28.779 7.65043 28.9887H10.1367V28.717H10.9954L11.0123 27.7905C9.13606 25.2432 7.78298 22.2383 6.68528 19.3199C5.61417 19.8709 4.77051 20.6796 4.72041 22.1249L4.71997 22.1209ZM11.1652 28.7152H11.734C11.5431 28.4855 11.357 28.2502 11.1758 28.0093L11.1652 28.7152ZM11.1612 28.9235V28.9887H11.9663L11.9118 28.9252H11.1612V28.9235ZM10.3455 28.9235V28.9887H10.9892V28.9252L10.3455 28.9235ZM12.3972 30.7274V30.9992H11.1231L11.0925 32.6452H11.0584C11.6165 34.6962 14.0252 34.526 15.7759 34.462C15.7931 33.4078 15.6403 32.3577 15.3233 31.3517C14.9327 31.3193 14.5494 31.2278 14.1866 31.0804C14.171 31.0747 14.157 31.0656 14.1453 31.0539L14.1431 31.0517L14.1391 31.0459L14.1369 31.0429L14.1347 31.0393L14.1316 31.0314L14.1294 31.0292C14.1294 31.0234 14.1263 31.019 14.1254 31.0129C14.1221 31.0121 14.1191 31.0106 14.1166 31.0084C14.114 31.0063 14.1121 31.0036 14.1108 31.0005C14.1085 30.9917 14.1161 30.9798 14.1325 30.9652C14.1385 30.9541 14.1474 30.9449 14.1582 30.9383C14.1658 30.9336 14.174 30.9301 14.1826 30.9277C14.3105 30.8522 14.4439 30.7862 14.5816 30.7301H12.3986L12.3972 30.7274ZM11.128 30.7274V30.791H12.1898V30.7274H11.128ZM10.3455 30.7274V30.791H10.956V30.7274H10.3446H10.3455ZM7.34896 30.7274C6.50913 31.9427 6.02616 33.3669 5.95422 34.8401C7.90047 34.9085 10.4829 35.0995 10.9551 32.6434H10.9214L10.952 31.001H10.1362V30.7292H7.34896V30.7274Z" fill="#E6E7E8"></path>
  <path d="M10.1349 29.1949H7.30508V30.5184H10.1349V29.1949ZM10.3437 28.9232H12.187V29.6026H11.2312V30.1121H12.187V30.7906H10.3437V28.9232ZM17.4059 34.4259C17.6808 34.5559 17.9557 34.686 18.2305 34.8163C18.7293 35.051 18.6145 35.5222 18.0111 35.5487C17.6165 35.4804 17.222 35.4125 16.8274 35.3448C17.026 35.0294 17.2113 34.71 17.3789 34.3844C17.3887 34.3981 17.3975 34.4122 17.4059 34.4259ZM12.7953 11.5967V12.4044L12.723 12.4336L12.6973 12.4433L12.6481 12.4622L12.6237 12.4715L12.5994 12.4808L12.5506 12.4971L12.4535 12.5311L12.4043 12.5465L12.3932 12.5496L12.3586 12.5611H12.3546L12.3059 12.5752H12.3036L12.2593 12.5871H12.2549C12.1755 12.6091 12.0962 12.6312 12.0177 12.6462L11.9703 12.6559H11.9614L11.9219 12.6634H11.9113L11.8377 12.6762L11.8195 12.6793L11.781 12.685H11.7783L11.73 12.6921L11.6856 12.6978H11.6834L11.6351 12.7027L11.5877 12.708H11.5846C11.4897 12.7168 11.3948 12.723 11.3004 12.7238H11.2516H11.2472C11.1226 12.7238 10.9963 12.7177 10.8708 12.7053H10.8633C10.7511 12.693 10.6416 12.6771 10.5268 12.6559L10.4824 12.6466H10.4776L10.4284 12.6361C10.3818 12.6263 10.3357 12.6162 10.2891 12.6047L10.2692 12.6003C10.0698 12.5494 9.87368 12.4868 9.68178 12.4128L9.67202 12.4088V11.733C9.67202 10.5211 12.7949 10.2771 12.7949 11.5967H12.7953ZM9.01368 16.8519C6.72964 16.5598 4.99311 13.2546 7.43011 11.9028C7.81103 11.7678 8.2271 11.7678 8.60803 11.9028C8.88483 12.0621 9.17067 12.2053 9.4641 12.3316V12.558L9.59711 12.6091C10.1157 12.8288 10.6738 12.9409 11.2374 12.9388C11.801 12.9367 12.3582 12.8203 12.8751 12.5968L13.0045 12.543V12.3122C13.3893 12.1313 13.7586 11.9196 14.1089 11.6792C14.3049 11.586 14.5217 11.5444 14.7385 11.5585C14.9553 11.5725 15.1649 11.6417 15.3471 11.7594C17.2375 13.1116 16.036 16.4963 13.9812 16.6803C13.7263 16.7028 13.4705 16.72 13.2165 16.7464C13.3676 16.731 13.4204 16.1041 13.4204 16.0684C13.5181 15.5223 13.4907 14.9613 13.3402 14.4272C13.1035 13.9022 12.6806 13.4825 12.1525 13.2484C11.6255 13.0455 11.0503 13.0007 10.498 13.1196C10.2379 13.2013 9.98814 13.3124 9.75361 13.4509C9.34813 13.706 9.04814 14.0975 8.90821 14.5541C8.76827 15.0108 8.79768 15.5022 8.99107 15.9391C8.99772 15.9567 9.3014 16.832 9.3014 16.8656C9.2052 16.8611 9.10811 16.8572 9.01191 16.8514L9.01368 16.8519ZM11.6386 44.6504L11.151 46.0714L10.4124 44.5613L7.77501 44.6495L7.23015 46.2347H15.0949L14.2769 44.5604L11.64 44.6487L11.6386 44.6504ZM11.5788 46.4425L11.8204 49.674C12.6694 49.8095 13.1087 49.899 13.9568 50.0354C14.0561 49.0021 14.3957 47.5295 14.4024 46.4425H11.5788ZM5.1004 44.7523C5.36288 43.9296 5.40702 43.0533 5.22852 42.2086L5.22186 42.1768C5.05513 42.2982 4.91553 42.4527 4.8119 42.6305C4.70826 42.8084 4.64286 43.0057 4.61982 43.21C4.60874 43.7628 4.7773 44.3043 5.1004 44.7541V44.7523ZM4.15521 32.6246L4.22791 33.1143C4.84858 36.251 5.47014 39.3879 6.09258 42.5249C6.586 44.7859 6.94022 46.9701 7.22883 49.2668L7.06036 49.2809C6.33507 49.2567 5.60269 49.2536 4.86454 49.2668L4.60918 49.2704C4.44849 47.7966 4.6032 46.3057 5.06315 44.8957L5.02946 44.9169C4.65746 44.4206 4.46175 43.8154 4.47308 43.1963C4.49957 42.9595 4.57738 42.7311 4.70114 42.5271C4.82491 42.323 4.99167 42.1481 5.18995 42.0144L3.50041 33.476L3.3315 32.7322C3.60965 32.732 3.88657 32.6955 4.15521 32.6237V32.6246ZM3.86439 27.1426L3.79256 29.4473C3.6147 29.5959 3.40626 29.7039 3.18191 29.7638C2.95757 29.8236 2.72278 29.8338 2.49405 29.7936L1.0918 28.0479L3.86439 27.1426ZM7.71738 46.4425L7.95633 49.131C8.80398 49.2668 9.4712 49.4023 10.3211 49.5382C10.4514 48.5111 10.5245 47.4776 10.5401 46.4425H7.71738ZM8.7397 18.3236C8.09155 18.5045 7.44296 18.8318 6.79393 19.0132C8.19929 22.7922 9.81833 26.1213 12.0084 28.7149H12.3968V29.1614L12.4269 29.1949H12.3968V29.8099H11.4409V29.9052H12.3968V30.5202H14.9534C14.9815 30.4154 14.9809 30.305 14.9517 30.2005C14.9225 30.096 14.8657 30.0012 14.7872 29.9259C12.052 26.4738 9.99964 22.5368 8.73882 18.3236H8.7397Z" fill="#727376"></path>
  <path fill-rule="evenodd" clip-rule="evenodd" d="M17.1098 30.6648C16.2824 30.8562 15.4441 30.998 14.5996 31.0892C15.19 31.2141 15.7925 31.2733 16.396 31.2657C16.6155 31.2657 16.8429 31.2537 17.0699 31.2312C17.2282 31.2158 17.3869 31.1942 17.5438 31.1664L17.7211 30.967C18.0058 30.6476 18.1561 30.5615 18.2088 30.3833C17.8657 30.4817 17.4933 30.5779 17.1085 30.663L17.1098 30.6648Z" fill="url(#paint0_linear_4642_2392)"></path>
  <path d="M26.8459 40.771V40.7838H26.6162V40.771H26.8459ZM26.6162 40.7838V40.771H26.8459V40.7838H26.6162Z" fill="#313536"></path>
  <path d="M26.8459 40.7949V40.7985H26.6162V40.7949H26.8459ZM26.6162 40.7985V40.7949H26.8459V40.7985H26.6162Z" fill="#313536"></path>
  <path d="M26.8468 40.8118V40.8153H26.6172V40.8118H26.8468ZM26.6172 40.8153V40.8118H26.8468V40.8153H26.6172Z" fill="#313536"></path>
  <path d="M22.2236 45.8736C22.1257 45.7093 22.0369 45.5398 21.9576 45.3658C22.0369 45.5398 22.1257 45.7093 22.2236 45.8736ZM25.9569 48.3803C25.1886 48.2635 24.4558 47.9789 23.8111 47.547C23.1664 47.115 22.6258 46.5464 22.228 45.882L25.9569 48.3803ZM26.5252 48.4333C26.3572 48.4271 26.1914 48.4126 26.0283 48.3892C26.1914 48.4126 26.3572 48.4271 26.5252 48.4333ZM27.7369 48.4381H26.7314C26.6653 48.4381 26.5984 48.4359 26.5341 48.4333L21.9549 45.3658C21.8036 45.0345 21.6879 44.6882 21.61 44.3326L27.7369 48.4381ZM29.4304 48.4381H28.2334L21.5391 43.9541C21.5581 44.0816 21.5803 44.2078 21.6082 44.3326C21.5272 43.9675 21.4863 43.5947 21.4863 43.2209V43.1167L29.4304 48.4381ZM31.1244 48.4381H29.9274L21.4872 42.7837V41.9816L31.1244 48.4381ZM32.8174 48.4381H31.6204L21.4872 41.6481V40.8474L32.8166 48.4381H32.8174ZM34.511 48.4381H33.314L21.4872 40.5134V39.7118L34.511 48.4381ZM37.202 50.2363L37.1834 50.1838C37.1342 50.0484 37.081 49.9152 37.022 49.7868C37.081 49.9143 37.1342 50.0475 37.1834 50.1838L37.202 50.2337V50.2363ZM37.4893 50.4335C37.4449 50.5443 37.4059 50.6581 37.366 50.7733C37.3181 50.5968 37.2645 50.4168 37.2042 50.2438L37.4893 50.4353V50.4335ZM37.8732 49.5552C37.7681 49.7541 37.6738 49.9585 37.5908 50.1675L37.022 49.7868C36.678 49.0368 36.1526 48.4492 35.3187 48.4381H35.0084L21.4868 39.3787V38.5771L37.8719 49.5552H37.8732ZM38.4544 48.8092C38.2828 48.9551 38.1346 49.1264 38.0151 49.317L21.4881 38.2436V37.4415L38.4544 48.8087V48.8092ZM39.5924 48.4381H39.5623C39.2614 48.4273 38.9631 48.4977 38.6991 48.642L21.4872 37.1089V36.3068L39.5915 48.439L39.5924 48.4381ZM41.2864 48.4381H40.0894L21.4872 35.9742V35.1722L41.2855 48.4381H41.2864ZM42.9799 48.4381H41.7829L21.4872 34.8391V34.037L42.979 48.4381H42.9799ZM44.6735 48.4381H43.4765L21.4872 33.7031V32.9019L44.6735 48.4373V48.4381ZM46.3683 48.4381H45.1713L21.4872 32.5693V31.7681L46.3683 48.4381ZM48.0233 48.4121C47.8504 48.4284 47.6766 48.4381 47.5019 48.4381H46.8657L21.4872 31.4337V30.633L48.0224 48.4121H48.0233ZM49.3568 48.0984C49.0577 48.212 48.7487 48.2979 48.4338 48.3552L21.4872 30.2999V29.4978L49.2868 48.124L49.3559 48.0984H49.3568ZM49.5971 48.0001C49.5554 48.0186 49.512 48.0362 49.469 48.0539C49.512 48.0362 49.5541 48.0186 49.5971 48.0001ZM50.3508 47.5937C50.1109 47.749 49.8589 47.8847 49.5971 47.9996L21.4872 29.1652V28.3636L50.2665 47.648L50.3508 47.5946V47.5937ZM51.0601 47.0432C50.889 47.2011 50.7074 47.3473 50.5166 47.4808L21.4872 28.0301V27.2284L51.0601 47.0432ZM51.6985 46.3373C51.5642 46.516 51.4186 46.686 51.2627 46.8464L21.4872 26.8949V26.0933L51.6985 46.3373ZM52.1959 45.5348C52.0966 45.7342 51.9844 45.927 51.8599 46.1119L21.4872 25.7602V24.9577L52.1959 45.5348ZM52.547 44.6353C52.4835 44.8551 52.4059 45.0707 52.3147 45.2807L21.4872 24.6247V23.8235L52.547 44.6353ZM52.7279 43.6228C52.7098 43.8674 52.6732 44.1102 52.6184 44.3494L21.4872 23.4904V22.6884L52.7279 43.6219V43.6228ZM52.7434 42.4965V43.2217L52.7412 43.2976L21.4863 22.3562V21.5546L52.7434 42.4965ZM52.7434 41.3627V42.1647L21.4885 21.2215V20.4203L52.7434 41.3627ZM52.7434 40.2275V41.0282L21.4885 20.0859V19.283L52.7434 40.2275ZM52.7434 39.092V39.8944L21.4885 18.9512V18.1496L52.7434 39.092ZM52.7434 37.9573V38.7589L21.4885 17.8165V17.0149L52.7434 37.9573ZM52.7434 36.8226V37.6242L21.4872 16.6801V16.291L21.035 15.5758L52.7434 36.8213V36.8226ZM52.7434 35.6879V36.4886L20.6693 14.9966L20.6387 14.9494H21.7975L52.7434 35.6879ZM52.7434 34.5528V35.3548L22.2927 14.9511H23.4897L52.7439 34.5528H52.7434ZM52.7434 33.4181V34.2201L23.9863 14.9511H25.1833L52.7434 33.4181ZM52.7434 32.2829V33.0854L25.6794 14.9533H26.8763L52.7434 32.2829ZM52.7434 31.1482V31.9499L27.3747 14.9503H28.5717L52.7434 31.1482ZM52.7434 30.0136V30.8147L29.0695 14.9511H30.2665L52.7434 30.0136ZM52.7434 28.8784V29.68L30.7617 14.9511H31.9587L52.7434 28.8784ZM52.7434 27.7442V28.5449L32.4548 14.9511H33.6518L52.7434 27.7442ZM52.7434 26.609V27.4102L34.1488 14.9503H35.3458L52.7443 26.6064L52.7434 26.609ZM52.7434 25.4739V26.2751L35.8427 14.9511H37.0397L52.7434 25.4739ZM52.7434 24.3392V25.1408L37.5371 14.9498H38.7341L52.7434 24.3392ZM52.7434 23.2045V24.0035L39.2302 14.9485H40.4272L52.7434 23.2045ZM52.7434 22.0694V22.8706L40.9238 14.9511H42.1208L52.7447 22.0694H52.7434ZM52.7434 20.9343V21.7359L42.6173 14.9511H43.8143L52.7434 20.9343ZM52.7434 19.7991V20.6012L44.3108 14.9511H45.5078L52.7434 19.7991ZM52.7434 18.6645V19.4656L46.0048 14.9511H47.2018L52.7434 18.6645ZM52.7434 17.5302V18.3314L47.6979 14.9511H48.8949L52.7434 17.5302ZM52.7434 16.3946V17.1967L49.3918 14.9511H50.5888L52.7434 16.3946ZM53.3792 15.6861L52.9092 16.1714L51.0867 14.9507H52.2837L53.3792 15.6861ZM54.0911 14.9511L53.5747 15.4832L52.7798 14.9511H53.9768L54.0464 14.9975L54.0907 14.9511H54.0911Z" fill="#BDBFC1"></path>
  <path d="M48.6863 15.791L51.446 17.6307V19.5198L48.6863 17.6805V15.791ZM48.6863 29.3945L51.446 31.2337V33.1228L48.6863 31.2831V29.3945ZM48.6863 43.0615L51.446 44.9007V46.7889L48.6863 44.9497V43.0615ZM36.4299 45.9167L38.3496 47.1992L38.358 48.5082L36.4388 47.2253L36.4299 45.9167ZM23.2852 15.791L26.0445 17.6307V19.5198L23.2852 17.6805V15.791ZM23.2852 29.3945L26.0445 31.2337V33.1228L23.2852 31.2831V29.3945ZM23.2852 43.0615L26.0445 44.9007V46.7889L23.2852 44.9497V43.0615Z" fill="#ED3237"></path>
  <path d="M35.8096 16.0974L37.7292 17.3804L37.7377 18.6893L35.818 17.4059L35.8096 16.0974Z" fill="#E73B3D"></path>
  <path d="M67.0316 52.4065C67.2648 52.6955 67.4883 52.9964 67.7135 53.2889C68.0278 53.7418 68.3813 54.1665 68.7699 54.5581L69.5648 55.1934L68.5451 55.1736C67.596 55.1555 66.6526 55.1061 65.7016 55.1087C64.4504 55.1112 63.2011 55.2027 61.963 55.3827C58.0528 55.9562 54.249 57.4328 50.7361 59.1922L50.2595 59.4291L50.2302 58.8997L50.1367 57.1853C41.0391 59.8156 31.9863 59.7198 23.023 56.6965L22.8971 59.0607L22.8683 59.6011L22.3872 59.3488C18.0346 57.0724 10.3898 53.3692 5.29638 54.9472L3.64453 55.4599L4.96832 54.3517C5.71311 53.7305 6.45702 53.1089 7.20004 52.4868C6.28594 51.6564 5.42116 50.7738 4.6101 49.8433L4.10338 49.2822L4.86369 49.2672C9.22031 49.1891 13.357 49.6938 17.2898 51.6204L17.3785 48.6535L17.3953 48.1042L17.8857 48.3566C30.2923 54.7231 42.9454 54.627 55.7018 49.2103L56.1939 49.0016L56.1846 49.5354L56.1563 51.4271C60.2611 49.5623 64.4213 49.3978 68.8927 49.4776L69.6765 49.4908L69.1419 50.0604C68.4086 50.8377 67.8159 51.6927 67.0294 52.4079L67.0316 52.4065Z" fill="#373435"></path>
  <path d="M50.5691 58.7137L50.4804 57.088C51.9304 56.6574 53.3816 56.1583 54.8339 55.5906L50.5691 58.7137ZM66.5467 52.3657C67.0894 53.001 68.1587 54.5137 68.5501 54.8278C65.3786 54.7661 60.4815 54.1515 51.5706 58.3969L56.101 55.0793L56.1041 54.8512L56.1107 54.4361V54.354V54.2702V54.1868V54.1802L56.116 53.7712L56.1191 53.6883V53.6058V53.5233V53.5101L56.124 53.1077V53.0235V52.941V52.8571V52.8382L56.1289 52.5258V52.442V52.3591V52.2766V52.1689L56.1347 51.8601V51.8107C60.2771 49.8837 64.4569 49.7451 68.8724 49.8219C67.9503 50.8194 67.4848 51.5976 66.5463 52.3657H66.5467ZM22.5625 58.8068L22.6795 56.5833C21.2035 56.0724 19.7302 55.4821 18.2595 54.8124L22.5625 58.8068ZM7.58587 52.3652C7.61513 52.4358 7.57922 52.5293 7.60848 52.6004C6.80339 53.2745 5.99815 53.9476 5.19277 54.6196C8.39672 53.6261 13.2339 54.2464 22.042 58.7825L17.2629 54.3474L17.2071 54.3201L17.2141 54.0951L17.2447 53.0746L17.2469 52.989L17.2545 52.7592V52.7336V52.6498L17.2572 52.5642L17.2594 52.4799L17.262 52.3948L17.2656 52.3096L17.2718 52.078V52.0542V52.0013C13.2698 50.0019 9.11448 49.5378 4.86426 49.6137C5.71043 50.587 6.61768 51.506 7.58056 52.3652H7.58587ZM17.7271 48.6638C17.6721 50.4785 17.617 52.2924 17.5617 54.1056C30.0193 60.05 42.7483 60.2269 55.7565 54.8468C55.7843 53.0751 55.8118 51.3027 55.8389 49.5298C42.7549 55.0833 30.038 54.9805 17.7266 48.6647L17.7271 48.6638Z" fill="#1DC688"></path>
  <path d="M15.0186 55.6563V51.0337C15.7908 51.3108 16.5458 51.6335 17.2796 51.9999V52.0528V52.0766L17.2734 52.3082L17.2698 52.3934L17.2672 52.4785L17.2649 52.5628L17.2623 52.6484V52.7322V52.7578L17.2547 52.9877L17.2525 53.0733L17.2219 54.0937L17.2148 54.3187L17.2707 54.346L22.0499 58.7812C19.78 57.5875 17.4336 56.5437 15.0261 55.6563H15.0186Z" fill="#0E815E"></path>
  <path d="M58.8385 50.7986V55.6705C56.3347 56.348 53.9013 57.2609 51.5713 58.397L56.1018 55.0793L56.1049 54.8512L56.1115 54.4361V54.354V54.2702V54.1868V54.1802L56.1168 53.7712L56.1199 53.6883V53.6058V53.5233V53.5101L56.1248 53.1077V53.0234V52.9409V52.8571V52.8381L56.1297 52.5258V52.442V52.359V52.2765V52.1689L56.1355 51.8601V51.8106C57.0096 51.4061 57.9132 51.0678 58.8385 50.7986Z" fill="#0E815E"></path>
  <path d="M50.5691 58.7162L50.4805 57.0904C51.9305 56.6599 53.3816 56.1607 54.834 55.5931L50.5691 58.7162ZM22.5626 58.8075L22.6801 56.5844C21.2041 56.0735 19.7307 55.4831 18.26 54.8131L22.5626 58.8075ZM17.7294 48.6646C17.675 50.4795 17.62 52.2935 17.5645 54.1064C30.0194 60.0507 42.7497 60.2285 55.7583 54.8475C55.7861 53.0764 55.8137 51.3042 55.8412 49.531C42.7572 55.0853 30.0429 54.9825 17.7294 48.6646Z" fill="#0E815E"></path>
  <path d="M12.8015 15.0278C12.6982 14.9762 12.7451 14.719 12.5248 14.8072C12.3045 14.8954 12.109 15.5091 11.6434 15.1553C11.1779 14.8015 11.5814 14.4419 11.964 14.4728C12.3466 14.5037 12.8529 14.6166 12.9047 14.2963C12.9047 14.2963 12.8515 13.466 11.1589 13.3659H11.1474C11.144 13.3657 11.1406 13.3657 11.1372 13.3659C9.44361 13.466 9.39042 14.2963 9.39042 14.2963C9.44185 14.6157 9.94901 14.5024 10.3312 14.4728C10.7133 14.4432 11.1172 14.8019 10.6521 15.1553C10.1871 15.5087 9.99025 14.8941 9.76991 14.8072C9.54957 14.7203 9.59745 14.9762 9.4946 15.0278C9.39174 15.0794 8.97677 15.2135 9.18425 15.3935C9.39174 15.5735 9.3514 16.0054 9.68213 16.5613C10.0129 17.1172 10.4992 16.5816 10.5506 16.489C10.602 16.3963 10.6748 16.1801 10.7887 16.1907C10.9696 16.2066 11.064 16.4435 11.1469 16.4237C11.2298 16.4435 11.3305 16.2066 11.5113 16.1907C11.6248 16.1806 11.698 16.3963 11.749 16.489C11.7999 16.5816 12.2867 17.1172 12.6175 16.5613C12.9482 16.0054 12.9114 15.574 13.1158 15.3935C13.3202 15.2131 12.9065 15.0785 12.8054 15.0278H12.8015Z" fill="#D7BDA3"></path>
  <path d="M26.7285 19.7302L26.7697 41.3792L27.4729 42.6145L28.5896 43.2732L33.8011 43.4788L36.2395 43.4373L45.7734 43.4916L47.4479 42.4089L47.9861 41.2155L47.8203 19.7302H26.7285Z" fill="#1EA27A"></path>
  <path d="M2.33008 29.9959C2.33008 29.9959 2.4214 31.6283 3.07444 32.5164C3.293 32.7414 3.1968 32.6928 3.33024 32.703C3.46369 32.7131 4.63322 32.7502 5.12355 31.9693C5.43389 31.4761 5.04995 31.4205 5.04995 31.4205C5.10623 31.351 5.13422 31.263 5.12839 31.1739C5.12256 31.0849 5.08334 31.0012 5.01848 30.9396C5.03045 30.9202 5.23261 30.2606 4.70504 30.0736C4.70504 30.0714 4.90808 29.2516 3.98417 29.3236C3.38111 29.3918 2.80871 29.6245 2.33008 29.9959Z" fill="#D7BDA3"></path>
  <path d="M2.39348 30.0242C2.41122 30.2549 2.53934 31.6839 3.12366 32.4798C3.1875 32.5442 3.22563 32.5888 3.25002 32.6166C3.2577 32.6263 3.26599 32.6356 3.27484 32.6443L3.29613 32.6399H3.33336C3.35198 32.6399 3.38966 32.6426 3.44197 32.6426C3.79665 32.6426 4.66958 32.5742 5.0708 31.9367C5.17056 31.7774 5.20381 31.6508 5.16834 31.5723C5.15511 31.5487 5.13681 31.5283 5.11473 31.5126C5.09266 31.4969 5.06736 31.4862 5.04066 31.4814L4.93736 31.4655L5.00076 31.3826C5.04862 31.3259 5.07273 31.253 5.06811 31.1791C5.06349 31.1052 5.03049 31.0359 4.97593 30.9855L4.93958 30.9511L4.96485 30.9096C5.01932 30.7337 5.01528 30.5449 4.95333 30.3714C4.92777 30.3148 4.89052 30.2643 4.84399 30.223C4.79747 30.1817 4.74273 30.1506 4.68333 30.1318L4.64653 30.1191L4.64166 30.0705L4.64431 30.0586C4.66464 29.9726 4.66726 29.8834 4.65202 29.7964C4.63678 29.7093 4.60401 29.6262 4.55565 29.5521C4.48192 29.4798 4.39144 29.4265 4.29219 29.397C4.19294 29.3676 4.08794 29.3628 3.98641 29.3832C3.40622 29.4507 2.85497 29.6723 2.39039 30.0246L2.39348 30.0242ZM3.44197 32.767C3.38611 32.767 3.34533 32.767 3.32627 32.7644C3.3143 32.7644 3.30455 32.7644 3.29613 32.7644H3.27971C3.25504 32.7647 3.23069 32.7587 3.20897 32.7471C3.18724 32.7354 3.16886 32.7184 3.15558 32.6977C3.13253 32.6708 3.09573 32.6285 3.02923 32.5601C2.36777 31.6605 2.27112 30.0674 2.26758 30.0013V29.9695L2.29153 29.9496C2.7792 29.568 3.36444 29.3298 3.98108 29.2618C4.10255 29.2375 4.22827 29.2444 4.34633 29.2818C4.4644 29.3192 4.57092 29.386 4.65584 29.4758C4.71221 29.5566 4.75184 29.6478 4.7724 29.744C4.79295 29.8402 4.79402 29.9395 4.77555 30.0361C4.84763 30.066 4.91253 30.1108 4.96602 30.1674C5.0195 30.2241 5.06034 30.2913 5.08588 30.3648C5.14299 30.5466 5.14453 30.7411 5.09031 30.9238C5.14786 30.9853 5.18426 31.0635 5.1943 31.147C5.20434 31.2305 5.1875 31.315 5.14618 31.3883C5.20612 31.4146 5.25445 31.4617 5.28227 31.5207C5.30643 31.6038 5.30957 31.6917 5.29139 31.7763C5.27321 31.861 5.23429 31.9399 5.17809 32.006C4.74407 32.6964 3.82059 32.771 3.44419 32.771L3.44197 32.767Z" fill="#373435"></path>
  <path d="M58.453 20.2974C58.453 20.2974 56.1144 21.5627 56.2173 23.8885C56.2386 23.9291 54.8939 26.7072 54.9356 28.4362C54.8939 28.4565 53.1365 30.1643 53.1365 30.7409C53.1365 31.3175 53.1152 30.3293 53.1152 30.3293C53.1152 30.3293 54.3074 28.6232 54.8762 28.3091C54.8784 28.2972 54.8212 25.6488 55.9748 23.8824C55.9796 23.8824 55.9553 20.6472 58.453 20.2974Z" fill="#727376"></path>
  <path d="M62.0586 38.8989C62.0586 38.8989 64.7576 37.9116 65.7503 34.4536C65.7813 34.4536 66.171 39.4636 66.0535 40.233C66.0602 40.2899 62.693 40.4245 62.693 40.4245L62.4239 40.2838L62.0586 38.9007V38.8989Z" fill="#2E87AD"></path>
  <path d="M63.1756 12.9563C63.1756 12.9563 66.4643 14.0028 63.1215 18.5337C63.1136 18.5725 66.2311 17.7545 65.8906 15.347C65.2855 13.45 63.1756 12.9563 63.1756 12.9563ZM58.2399 30.3828C59.1474 30.7028 60.1039 30.8632 61.0667 30.8566C60.8973 31.2326 60.7057 31.5984 60.493 31.952C59.6768 31.8645 58.8726 31.6889 58.0945 31.4284C58.1043 31.4429 58.2399 30.3828 58.2399 30.3828ZM55.9346 36.6916C56.0124 37.1209 56.1868 37.5271 56.4447 37.8798C56.7026 38.2326 57.0373 38.5227 57.4238 38.7285C57.4681 38.8525 57.4566 40.1667 57.4566 40.1667C57.4566 40.1667 55.8885 39.7939 55.9346 36.6916Z" fill="#373435"></path>
  <path d="M20.5735 52.7793C20.6131 52.804 20.6553 52.8244 20.6994 52.8401C20.7373 52.8631 20.7798 52.8775 20.824 52.8825C20.8681 52.8875 20.9128 52.8828 20.9549 52.869C20.9971 52.8551 21.0357 52.8323 21.0681 52.8021C21.1005 52.7719 21.126 52.735 21.1427 52.6941C21.2048 52.5375 21.1325 52.4003 20.9401 52.324C20.8868 52.302 20.8312 52.2862 20.7743 52.2768L20.5735 52.7793ZM20.4994 51.8528C20.6826 51.8954 20.862 51.9528 21.0359 52.0244C21.2262 52.0827 21.3912 52.2034 21.504 52.3668C21.5433 52.4375 21.5659 52.5161 21.5703 52.5968C21.5747 52.6775 21.5606 52.7581 21.5293 52.8326C21.5026 52.9084 21.4606 52.9779 21.4057 53.0368C21.3509 53.0957 21.2845 53.1428 21.2105 53.175C21.0038 53.2412 20.7796 53.2267 20.5832 53.1344C20.5392 53.1174 20.4964 53.0975 20.4551 53.0748L20.2122 53.6832L19.8291 53.5319L20.4994 51.8528Z" fill="#F3F4F4"></path>
  <path d="M22.6791 53.7686L22.0407 53.5445L21.8962 53.9552L22.6091 54.2045L22.496 54.5243L21.3877 54.137L21.9982 52.4106L23.0688 52.7852L22.9558 53.1055L22.2788 52.8686L22.152 53.2273L22.7904 53.4501L22.6791 53.7686Z" fill="#F3F4F4"></path>
  <path d="M23.3658 52.8804L23.7648 53.0057L23.3157 54.421L24.0139 54.6416L23.9093 54.9733L22.8125 54.6288L23.3658 52.8804Z" fill="#F3F4F4"></path>
  <path d="M25.2508 54.5379L25.2437 54.1329C25.2415 54.0195 25.2464 53.8796 25.249 53.768H25.2437C25.1888 53.8651 25.1253 53.9913 25.0664 54.0852L24.8567 54.4311L25.249 54.5392L25.2508 54.5379ZM24.7188 54.7144L24.4661 55.133L24.0498 55.0174L25.0819 53.4019L25.6086 53.5466L25.6684 55.463L25.2366 55.3444L25.226 54.8538L24.7188 54.7144Z" fill="#F3F4F4"></path>
  <path d="M28.0222 55.9182C27.8149 55.9389 27.6056 55.928 27.4016 55.886C27.2677 55.8664 27.139 55.8207 27.023 55.7514C26.9069 55.6821 26.8058 55.5907 26.7255 55.4824C26.6593 55.3786 26.6156 55.2622 26.597 55.1407C26.5785 55.0192 26.5855 54.8951 26.6177 54.7765C26.6448 54.6451 26.6996 54.521 26.7786 54.4124C26.8575 54.3038 26.9588 54.2131 27.0756 54.1463C27.1924 54.0796 27.3222 54.0383 27.4563 54.0252C27.5904 54.0122 27.7257 54.0276 27.8533 54.0706C28.0251 54.1029 28.1882 54.1705 28.3321 54.2691L28.1747 54.5735C28.0546 54.4889 27.9177 54.431 27.7731 54.4037C27.6188 54.3654 27.4556 54.3897 27.3193 54.4712C27.183 54.5527 27.0849 54.6847 27.0464 54.8382C27.008 54.9917 27.0324 55.1542 27.1143 55.2898C27.1962 55.4254 27.3289 55.5231 27.4831 55.5613C27.5499 55.5805 27.6197 55.5867 27.6888 55.5794L27.7722 55.2057L27.4951 55.144L27.566 54.8285L28.235 54.9768L28.024 55.9182H28.0222Z" fill="#F3F4F4"></path>
  <path d="M28.9349 55.14L29.0963 55.1696C29.3002 55.2071 29.4398 55.1281 29.4691 54.9702C29.5001 54.8043 29.4026 54.7011 29.2151 54.6614C29.1533 54.6489 29.0905 54.6421 29.0275 54.6411L28.9349 55.14ZM28.6738 54.2912C28.8592 54.2974 29.0439 54.3181 29.2262 54.353C29.4351 54.3719 29.6317 54.4598 29.7848 54.6027C29.8315 54.6584 29.8646 54.7243 29.8813 54.795C29.898 54.8657 29.8979 54.9392 29.881 55.0099C29.8615 55.1072 29.8125 55.1963 29.7406 55.2651C29.6687 55.3339 29.5774 55.3791 29.4789 55.3946V55.4025C29.5365 55.4477 29.5826 55.5058 29.6134 55.572C29.6442 55.6382 29.6589 55.7108 29.6562 55.7837C29.6648 55.9626 29.6826 56.1409 29.7094 56.318L29.2904 56.2417C29.2601 56.0965 29.2441 55.9487 29.2426 55.8005C29.2355 55.5675 29.1685 55.4917 29.0036 55.4586L28.8795 55.4356L28.7465 56.1415L28.3408 56.067L28.6711 54.2908L28.6738 54.2912Z" fill="#F3F4F4"></path>
  <path d="M30.9902 55.7233L30.9339 55.3227C30.9171 55.2102 30.9047 55.0708 30.8936 54.9596H30.8883C30.8439 55.0633 30.7996 55.1966 30.7526 55.2967L30.5877 55.6651L30.9902 55.7242V55.7233ZM30.4831 55.962L30.2849 56.4076L29.8584 56.3449L30.6821 54.616L31.2221 54.6949L31.5183 56.5885L31.0749 56.5236L31.0031 56.0383L30.4817 55.962H30.4831Z" fill="#F3F4F4"></path>
  <path d="M31.7832 56.6207L31.9796 54.7996L32.4633 54.8512L32.7736 55.5571C32.8649 55.7705 32.942 55.9896 33.0046 56.2131H33.013C33.0139 55.958 33.0295 55.7032 33.0596 55.4499L33.1168 54.9178L33.4971 54.9588L33.2985 56.7822L32.8641 56.7354L32.5489 55.9907C32.4539 55.7698 32.3711 55.5439 32.301 55.314L32.2917 55.3162C32.2771 55.5579 32.2549 55.8147 32.2226 56.1103L32.1636 56.6587L31.7832 56.6185V56.6207Z" fill="#F3F4F4"></path>
  <path d="M34.1219 56.5328C34.1691 56.543 34.2172 56.5489 34.2655 56.5505C34.3506 56.5649 34.4378 56.5599 34.5207 56.5359C34.6036 56.5119 34.6799 56.4695 34.7439 56.4119C34.8079 56.3543 34.858 56.283 34.8903 56.2034C34.9226 56.1238 34.9364 56.0379 34.9305 55.9522C34.9446 55.875 34.941 55.7957 34.9202 55.7201C34.8994 55.6444 34.8617 55.5744 34.8101 55.5151C34.7585 55.4559 34.6941 55.4089 34.6218 55.3776C34.5495 55.3464 34.4711 55.3317 34.3923 55.3346C34.3294 55.329 34.2661 55.3303 34.2035 55.3385L34.1232 56.5333L34.1219 56.5328ZM33.8049 55.0152C33.9925 55.0011 34.1808 55.0011 34.3684 55.0152C34.6352 55.0118 34.8955 55.0981 35.107 55.26C35.2059 55.3479 35.2818 55.4584 35.3281 55.582C35.3745 55.7056 35.3899 55.8386 35.373 55.9694C35.3716 56.1081 35.3391 56.2447 35.2777 56.3692C35.2163 56.4938 35.1277 56.603 35.0183 56.689C34.7601 56.8454 34.4556 56.9087 34.156 56.8681C33.9984 56.8591 33.8415 56.8397 33.6865 56.8099L33.8067 55.0165L33.8049 55.0152Z" fill="#F3F4F4"></path>
  <path d="M36.7258 56.1932L36.0493 56.1729L36.036 56.6074L36.7896 56.6299L36.7794 56.9697L35.6055 56.9344L35.6613 55.103L36.7972 55.1374L36.787 55.4771L36.0683 55.4551L36.0572 55.8354L36.7338 55.8561L36.7258 56.1932Z" fill="#F3F4F4"></path>
  <path d="M36.9678 56.7507L37.8407 55.4934V55.4824L37.0462 55.4846V55.1422L38.3816 55.1387V55.3773L37.5273 56.6184V56.6294L38.398 56.6268V56.9696L36.9678 56.9735V56.7507Z" fill="#F3F4F4"></path>
  <path d="M39.5748 56.1469L39.4418 55.7636C39.4046 55.6559 39.3665 55.5222 39.3346 55.415H39.3288C39.3062 55.5249 39.2845 55.6643 39.2596 55.7711L39.1661 56.1637L39.5726 56.1469H39.5748ZM39.1213 56.4752L39.0105 56.9508L38.5791 56.9684L39.0668 55.1155L39.6121 55.0925L40.2585 56.8974L39.8111 56.9159L39.6498 56.4522L39.1235 56.4743L39.1213 56.4752Z" fill="#F3F4F4"></path>
  <path d="M41.5282 56.4865C41.5766 56.4896 41.6252 56.4878 41.6732 56.4812C41.7594 56.4815 41.8446 56.4623 41.9223 56.4252C42.0001 56.388 42.0683 56.3338 42.122 56.2667C42.1757 56.1995 42.2134 56.1212 42.2324 56.0375C42.2513 55.9538 42.251 55.8669 42.2314 55.7833C42.2327 55.7048 42.2163 55.627 42.1833 55.5556C42.1504 55.4843 42.1019 55.4211 42.0412 55.3709C41.9806 55.3207 41.9094 55.2846 41.8329 55.2653C41.7564 55.2461 41.6765 55.2441 41.5992 55.2596C41.5361 55.2646 41.4738 55.2758 41.413 55.2932L41.5282 56.4865ZM40.9688 55.0382C41.1519 54.9938 41.3382 54.9633 41.526 54.9468C41.7891 54.9004 42.0602 54.9439 42.2952 55.0704C42.4069 55.1412 42.4996 55.2381 42.5651 55.3526C42.6306 55.4672 42.6671 55.596 42.6712 55.7277C42.6924 55.8648 42.6825 56.005 42.6422 56.1378C42.6019 56.2706 42.5323 56.3928 42.4384 56.4954C42.2087 56.6915 41.9182 56.8031 41.6156 56.8112C41.4583 56.8276 41.3001 56.8336 41.1421 56.8293L40.9696 55.0382H40.9688Z" fill="#F3F4F4"></path>
  <path d="M43.8304 55.7507L43.6633 55.3815C43.6159 55.2787 43.5644 55.1485 43.5228 55.0444H43.5174C43.505 55.156 43.4975 55.2968 43.482 55.4057L43.4274 55.8054L43.8304 55.7498V55.7507ZM43.4106 56.1213L43.3454 56.6066L42.9189 56.6662L43.2226 54.7757L43.7635 54.7012L44.5815 56.4368L44.1381 56.4976L43.9329 56.0516L43.4106 56.1235V56.1213Z" fill="#F3F4F4"></path>
  <path d="M45.7115 55.2414C45.7583 55.2409 45.8049 55.2355 45.8507 55.2256C46.0675 55.1841 46.181 55.0491 46.1446 54.8642C46.1127 54.6992 45.9779 54.6225 45.774 54.6617C45.717 54.6708 45.6614 54.6873 45.6086 54.7107L45.7115 55.2414ZM45.1484 54.5029C45.3257 54.4399 45.508 54.3918 45.6933 54.3591C45.8853 54.3057 46.0899 54.3191 46.2732 54.397C46.3446 54.4356 46.4064 54.4897 46.4539 54.5553C46.5015 54.6209 46.5335 54.6964 46.5476 54.776C46.566 54.8541 46.568 54.9351 46.5537 55.014C46.5394 55.0929 46.5089 55.1681 46.4643 55.2348C46.3262 55.4016 46.1295 55.5097 45.9141 55.537C45.8675 55.5466 45.8202 55.5528 45.7727 55.5556L45.8977 56.1988L45.4933 56.2773L45.1484 54.5029Z" fill="#F3F4F4"></path>
  <path d="M47.6517 55.0302L47.4522 54.6773C47.395 54.5793 47.3329 54.4545 47.281 54.3548H47.2757C47.2757 54.4668 47.2793 54.608 47.2735 54.7183L47.2558 55.1202L47.6517 55.0302ZM47.5887 53.5227L47.3404 53.9229L47.0159 53.9983L47.1627 53.6211L47.5887 53.5227ZM47.2677 55.4365L47.2469 55.9218L46.8262 56.0189L46.9592 54.1095L47.4912 53.9864L48.463 55.6408L48.0272 55.7418L47.7816 55.3161L47.2677 55.4365Z" fill="#F3F4F4"></path>
  <path d="M48.5072 54.0954L48.031 54.222L47.9424 53.8867L49.3079 53.5232L49.3965 53.8589L48.9089 53.9886L49.2941 55.4202L48.8907 55.5275L48.5072 54.0954Z" fill="#F3F4F4"></path>
  <path d="M50.1513 54.1158L50.3078 54.0677C50.5064 54.0077 50.5924 53.8723 50.5454 53.7196C50.4958 53.5586 50.361 53.5114 50.1779 53.5648C50.117 53.5825 50.0577 53.6052 50.0006 53.6327L50.15 54.118L50.1513 54.1158ZM49.5244 53.4836C49.6918 53.4044 49.8651 53.338 50.0427 53.2851C50.2364 53.205 50.4516 53.1923 50.6536 53.2489C50.7211 53.2765 50.7813 53.3194 50.8291 53.3743C50.877 53.4291 50.9114 53.4944 50.9293 53.5648C50.957 53.66 50.9549 53.7614 50.9232 53.8555C50.8915 53.9495 50.8318 54.0317 50.752 54.0911L50.7547 54.0986C50.827 54.1118 50.8952 54.1418 50.9536 54.1863C51.0121 54.2308 51.059 54.2884 51.0907 54.3545C51.2064 54.534 51.3323 54.7467 51.3869 54.8036L50.9794 54.928C50.8847 54.8131 50.8014 54.6893 50.7307 54.5583C50.6164 54.3545 50.5224 54.3179 50.3597 54.3646L50.24 54.4012L50.4523 55.0895L50.0586 55.2099L49.5244 53.4836Z" fill="#F3F4F4"></path>
  <path d="M51.4613 52.842L52.0505 54.5763L51.6551 54.7087L51.0654 52.974L51.4613 52.842Z" fill="#F3F4F4"></path>
  <path d="M52.9954 53.4102L52.7525 53.0859C52.6833 52.9946 52.6053 52.8786 52.5415 52.7864L52.5361 52.7886C52.549 52.8993 52.5721 53.0392 52.5805 53.1482L52.6142 53.5514L52.9954 53.4102ZM52.6665 53.862L52.7077 54.3473L52.3034 54.4959L52.1895 52.5843L52.702 52.3955L53.8772 53.9145L53.4574 54.0698L53.1604 53.6776L52.6665 53.862Z" fill="#F3F4F4"></path>
  <path fill-rule="evenodd" clip-rule="evenodd" d="M12.1867 30.7906V30.113H11.2309V29.603H12.1867V28.9236H10.3438V30.7906H12.1867Z" fill="white"></path>
  <path d="M4.45897 32.6211L4.32598 31.9381C4.23999 31.9296 4.15316 31.9375 4.07017 31.9615C3.98505 32.0003 4.17081 32.7645 4.17081 32.7645L4.48115 32.7799L4.46075 32.6211H4.45897Z" fill="#292929"></path>
  <path d="M47.9203 19.5L27.7373 42.5069L28.7295 43.2066L29.9709 43.1246L31.9149 43.2066L34.1067 43.0835L36.3403 43.2066L37.043 43.5362L37.653 44.5654L37.6641 45.1831L38.2848 43.5776L38.7396 43.1665H45.9363L46.9285 42.7549L47.6733 41.9726L48.087 40.9853L47.9203 19.5Z" fill="#0E815E"></path>
  <path d="M4.4021 31.0662C4.40918 31.0658 4.41629 31.0658 4.42338 31.0662C4.45157 31.067 4.4797 31.0693 4.50761 31.0733C4.56876 30.9018 4.56735 30.7144 4.50362 30.5439C4.47664 30.48 4.43513 30.4232 4.38236 30.3779C4.32958 30.3327 4.26699 30.3003 4.19949 30.2832C4.42116 30.4032 4.51693 30.8298 4.28816 30.8708C4.03989 31.0248 3.23435 31.0376 2.98741 31.5087C3.02285 31.4828 3.06053 31.4601 3.10002 31.4408L3.08937 31.4439C3.48224 31.1976 3.93691 31.0666 4.40122 31.0658L4.4021 31.0662ZM4.80376 31.5074C4.79171 31.4718 4.77689 31.4371 4.75943 31.4037C4.73521 31.3502 4.69908 31.3029 4.65376 31.2654C4.60844 31.2279 4.55512 31.2011 4.49786 31.1871C4.4718 31.1808 4.44526 31.1767 4.41851 31.1748C4.66146 31.312 4.85608 31.7148 4.61535 31.784C4.36309 31.9067 3.68433 31.8864 3.31237 32.3735C3.3579 32.3402 3.40543 32.3097 3.45468 32.2821C3.39173 32.2949 3.67635 31.9883 4.43269 31.912C4.58147 31.8932 4.73257 31.906 4.87602 31.9495C4.87476 31.7996 4.85039 31.6508 4.80376 31.5083V31.5074ZM2.88809 30.5809C3.23292 30.2993 3.66608 30.147 4.11216 30.1504C4.12324 30.1504 4.13388 30.1539 4.14497 30.1548C4.15605 30.1557 4.17556 30.1579 4.1893 30.1605C4.19008 30.0548 4.1765 29.9494 4.14896 29.8473C4.14674 29.8415 4.14541 29.8358 4.14319 29.8296V29.8239C4.1278 29.7714 4.10684 29.7207 4.08067 29.6726C4.06224 29.638 4.03977 29.6057 4.01373 29.5764C3.99601 29.5682 3.97742 29.562 3.95831 29.5579C4.06649 29.6712 4.12324 29.9408 4.04698 30.0057C3.80581 30.2152 3.03307 30.1852 2.78613 30.6568C2.86316 30.6028 2.94562 30.5568 3.03218 30.5196C2.98342 30.5399 2.93465 30.5598 2.88721 30.5809H2.88809Z" fill="#373435"></path>
  <path d="M6.79297 19.0133C6.79297 19.0133 8.17841 22.5701 8.61288 23.373L9.04734 24.1755L11.0947 24.2165C11.0947 24.2165 8.90592 19.4889 8.73923 18.3237C8.73923 18.3312 6.79297 19.0133 6.79297 19.0133Z" fill="#373435"></path>
  <path d="M17.9561 31.0935C18.4668 30.52 18.5896 30.6003 18.4881 29.781C18.6588 29.6747 18.8392 29.5574 18.9757 29.6641C19.0991 29.9735 19.0979 30.3183 18.9722 30.6268C19.2559 30.2518 19.2174 30.1022 19.1894 29.6231C19.2399 29.5662 19.3055 29.5245 19.3786 29.5029C19.4517 29.4812 19.5295 29.4803 19.6031 29.5004C19.6224 29.7207 19.6197 29.9424 19.5951 30.1622C19.6838 29.9553 19.7533 29.7382 19.8402 29.5322C19.8438 29.5146 19.8509 29.4979 19.8611 29.4831C19.8713 29.4683 19.8845 29.4558 19.8997 29.4462C19.915 29.4366 19.9321 29.4302 19.9499 29.4274C19.9677 29.4246 19.9859 29.4254 20.0034 29.4299C20.0303 29.428 20.0572 29.4323 20.0821 29.4424C20.1071 29.4525 20.1294 29.4681 20.1474 29.488C20.1654 29.508 20.1786 29.5317 20.186 29.5575C20.1934 29.5833 20.1947 29.6104 20.19 29.6368C20.1284 30.6254 18.6131 31.1015 17.9574 31.0926L17.9561 31.0935Z" fill="#D7BDA3"></path>
  <path d="M62.0695 18.3642C62.0695 18.4966 61.792 18.6056 61.4488 18.6056C61.1057 18.6056 60.8281 18.4975 60.8281 18.3642C60.8281 18.231 61.1057 18.1948 61.4488 18.1948C61.792 18.1948 62.0695 18.2306 62.0695 18.3642Z" fill="#313536"></path>
  <path d="M14.3673 44.3495L11.7822 44.4377C11.7822 44.4377 11.2134 36.662 11.3832 39.1644C11.553 41.6667 15.4225 37.2717 15.4225 37.2717C15.4225 37.2717 15.2092 41.9958 14.3673 44.3495Z" fill="#2E87AD"></path>
  <path d="M47.7618 39.4297L47.7406 40.7634C45.859 40.5869 44.0365 40.2957 41.7972 40.7713C38.801 41.3618 35.7149 41.3328 32.7305 40.6862C30.5395 40.3716 28.5631 40.3368 27.046 40.9174C27.0212 40.9174 26.9985 40.9174 26.9742 40.9147C26.9719 40.8706 26.9697 40.8221 26.9697 40.7753V39.4606C30.6051 38.7013 33.3636 39.3723 35.8582 39.761C39.7565 40.2269 43.4229 38.3881 47.7618 39.4297Z" fill="#F3F4F4"></path>
  <path fill-rule="evenodd" clip-rule="evenodd" d="M11.0945 32.6273C11.0945 32.6273 11.0373 32.6383 11.0568 32.6441C11.1619 32.9685 11.316 33.2751 11.5139 33.5533C12.4591 34.8327 15.7743 34.4608 15.7743 34.4608C14.8003 34.5455 13.8244 34.3204 12.9871 33.8181C12.1497 33.3158 11.494 32.5622 11.1144 31.6655L11.0945 32.6273Z" fill="#727376"></path>
  <path d="M3.67081 32.0978L5.78022 43.2308L5.96642 49.2194L7.22815 49.2666C7.22815 49.2666 6.64872 45.2889 6.23508 43.2308C5.82145 41.1728 4.14652 32.5504 4.14652 32.5504L4.06894 31.9614L3.66992 32.0978H3.67081Z" fill="#373435"></path>
  <path d="M7.30078 30.5242H10.1235V29.7627H7.30078V30.5242Z" fill="#373435"></path>
  <path fill-rule="evenodd" clip-rule="evenodd" d="M13.2555 21.2637V20.827L13.1176 20.6924L11.3443 18.9617L13.2555 21.2637ZM9.75978 20.6549L9.75137 20.6646C9.79659 20.7823 9.8424 20.9006 9.8888 21.0198L11.1745 19.0031L9.76112 20.6549H9.75978ZM11.0011 28.1628L11.0082 27.7874C9.67616 25.9218 8.55931 23.913 7.67875 21.7989C7.30339 20.9889 6.97044 20.1602 6.68124 19.3159L6.65509 19.3296L6.53095 19.3958C6.47598 19.4258 6.42234 19.4567 6.36914 19.4884C6.45249 19.6742 9.15463 25.8056 11.0029 28.1628H11.0011ZM11.4924 28.7152H11.7238L11.6608 28.627C11.495 28.4249 11.3325 28.219 11.1732 28.0093L11.1665 28.3667C11.2681 28.4882 11.3763 28.6041 11.4906 28.7139L11.4924 28.7152Z" fill="#727376"></path>
  <path d="M59.8652 16.9885H61.0596V16.2637H59.8652V16.9885Z" fill="#373435"></path>
  <path d="M61.7734 16.9885H62.9673V16.2637H61.7734V16.9885Z" fill="#373435"></path>
  <path d="M62.9828 16.3763C62.9828 16.3763 62.7704 17.0645 62.1564 16.8784C61.643 16.7222 62.0447 16.3198 62.0447 16.3198C62.3027 16.1817 62.7234 16.3692 62.981 16.3692C62.9548 16.2452 62.909 16.1261 62.8453 16.0163C62.6958 15.7699 62.4888 15.5631 62.2418 15.4133C61.9949 15.2635 61.7152 15.1753 61.4266 15.156H61.4222C61.1336 15.175 60.8538 15.2632 60.6068 15.413C60.3598 15.5628 60.1528 15.7698 60.0035 16.0163C59.9391 16.1259 59.8928 16.245 59.8665 16.3692C60.1241 16.3692 60.5462 16.1817 60.8037 16.3198C60.8037 16.3198 61.2028 16.7222 60.6916 16.8784C60.0776 17.0645 59.8652 16.3763 59.8652 16.3763C59.8652 16.3763 59.6879 18.4295 60.3529 19.0384C60.6268 19.3508 61.0082 19.55 61.4222 19.5969H61.4266C61.8408 19.5501 62.2224 19.3509 62.4964 19.0384C63.1614 18.4295 62.9841 16.3763 62.9841 16.3763H62.9828Z" fill="#D7BDA3"></path>
  <path d="M62.0467 18.5423C62.0467 18.6552 61.7713 18.747 61.4309 18.747C61.0904 18.747 60.8164 18.6557 60.8164 18.5423C60.8164 18.4289 61.093 18.2776 61.4318 18.2776C61.7705 18.2776 62.0467 18.4289 62.0467 18.5423Z" fill="#373435"></path>
  <path d="M11.7115 16.8067C11.7041 16.7966 11.6961 16.7869 11.6876 16.7776C11.6761 16.7736 11.6645 16.7719 11.6535 16.7674C11.6163 16.7477 11.5756 16.7351 11.5338 16.7304C11.2633 16.6745 10.9828 16.6906 10.7207 16.7772C10.7114 16.7798 10.7016 16.7833 10.6932 16.7864C10.6489 16.801 10.6218 16.8129 10.6218 16.8129C10.6195 16.8167 10.6176 16.8207 10.6161 16.8248C10.5395 16.875 10.4766 16.9432 10.4329 17.0234C10.3892 17.1036 10.3661 17.1933 10.3656 17.2845C10.3611 17.4069 10.4013 17.5267 10.4787 17.6219C10.5561 17.7171 10.6655 17.7812 10.7867 17.8024C10.9796 17.8024 10.9419 17.6194 10.9419 17.3335C10.9419 17.2497 10.9446 17.1672 10.9441 17.0904C11.0864 17.1209 11.2343 17.1142 11.3733 17.071C11.3727 17.1451 11.3652 17.2189 11.3507 17.2916C11.2912 17.5708 11.313 17.7597 11.5063 17.7597C11.6273 17.7384 11.7366 17.6744 11.8139 17.5793C11.8913 17.4841 11.9314 17.3644 11.927 17.2422C11.9264 17.1579 11.9067 17.0749 11.8694 16.9993C11.8321 16.9236 11.7782 16.8574 11.7115 16.8054V16.8067Z" fill="#D7BDA3"></path>
  <path d="M61.3425 17.3623L61.0654 17.8512H61.6998L61.4946 17.3535L61.3425 17.3623Z" fill="#373435"></path>
  <path d="M19.2304 8.24723C19.3541 8.14929 19.4702 8.05797 19.5762 7.97591H19.5784L19.9149 7.65562L18.8509 6.35991L17.884 7.16372L18.4568 7.77209L17.4894 8.57811L16.8577 8.04871L16.0703 8.79869L17.1551 10.034C17.7235 9.50633 18.2998 9.00413 18.8841 8.52738C18.9945 8.43561 19.1098 8.34252 19.2304 8.24723ZM24.2963 4.94287C24.5388 4.79861 24.7773 4.66229 25.0145 4.5317C25.2517 4.40111 25.4938 4.27141 25.7434 4.14391C26.9492 3.52485 28.2009 2.99833 29.4873 2.56893L29.5897 2.53408L29.6784 2.50849L29.0355 0.977634L27.9352 1.45145L28.2371 2.12423L28.3023 2.28173L27.3172 2.70526L26.9044 1.84189L25.3448 2.56849L25.7598 3.41289L24.5264 4.04112L24.131 3.29466L23.2629 3.79494L23.986 5.14139L24.2963 4.94331V4.94287ZM27.0007 9.49751C26.8415 9.57207 26.6828 9.64706 26.5245 9.72471L27.0445 11.3765C27.1372 11.3292 27.2347 11.2754 27.3358 11.2287C27.3358 11.2287 27.3318 11.2159 27.323 11.1916C27.1494 10.6414 27.0412 10.0728 27.0007 9.49751ZM22.8019 11.5269C23.8664 10.8003 24.977 10.1431 26.1268 9.55927L25.6591 8.07297C24.2728 8.78285 22.9429 9.59697 21.6811 10.5082L22.8019 11.5269ZM30.0047 5.95491L29.1916 4.49508C29.0825 4.53126 28.973 4.56788 28.8644 4.60493C28.6317 4.68523 28.3967 4.76993 28.1622 4.85816C27.212 5.21298 26.281 5.61646 25.3727 6.06697L25.8573 7.60489C27.1927 6.94403 28.5797 6.3918 30.0047 5.95359V5.95491ZM25.5607 7.75533L25.0757 6.21653C24.9196 6.29506 24.7627 6.37667 24.6067 6.45873L24.5942 6.45608L24.9489 7.30048L21.6142 9.50192L20.8685 8.79605L20.8596 8.80267C20.6646 8.94413 20.4705 9.08854 20.2775 9.23589L21.4337 10.2859C22.7408 9.33741 24.1207 8.49247 25.5607 7.75886V7.75533ZM21.4111 10.7032C21.0949 10.9362 20.7809 11.1763 20.469 11.4237C20.6218 11.4201 20.7746 11.4279 20.9261 11.447C21.3182 11.6077 21.6885 11.8164 22.0287 12.0682C22.1945 11.9478 22.359 11.8309 22.5252 11.7153L21.4111 10.7006V10.7032ZM34.9323 6.88446L35.2262 5.26139C33.6226 5.40614 32.0367 5.70442 30.4906 6.15212L31.2832 7.57268C32.4801 7.25086 33.7001 7.02078 34.9323 6.88446ZM30.1691 6.24741C29.6939 6.39167 29.22 6.55402 28.7474 6.72696C28.9979 6.79462 29.2329 6.90981 29.4394 7.06622C29.4625 7.07725 29.4838 7.08563 29.5095 7.09798C29.5879 7.16592 29.6655 7.24136 29.7422 7.31857C29.9227 7.49097 30.0889 7.67761 30.2392 7.87665C30.4786 7.80165 30.7184 7.72974 30.9587 7.66092L30.1691 6.24653V6.24741ZM26.4265 9.40883C26.6145 9.31707 26.8029 9.22839 26.9909 9.1406C26.9618 8.46057 27.1422 7.78791 27.5078 7.21269C26.9882 7.43327 26.4713 7.66665 25.9562 7.92121L26.4265 9.40883ZM35.2861 4.92743L35.5813 3.15922L34.7523 3.25495L34.5887 4.06847L30.4737 4.69626L30.2596 4.19729L29.7786 4.30802L29.7657 4.31288L29.5755 4.37156H29.5733L29.5108 4.39229L30.3274 5.8583C31.9449 5.38389 33.6061 5.07204 35.2861 4.92743ZM32.2891 9.38677C33.0369 9.20105 33.7942 9.05569 34.5577 8.95134L34.872 7.21975C33.7162 7.35329 32.5716 7.57003 31.4473 7.86827L32.2891 9.38677ZM30.4427 8.15811C30.7629 8.63552 31.0418 9.13909 31.2766 9.66339L31.285 9.65986L31.9606 9.47016L31.1196 7.95782L30.4427 8.15811ZM23.051 11.7519L24.3602 12.943C25.1561 12.4233 25.9519 11.9536 26.7475 11.5339L26.2261 9.87647C25.1298 10.4356 24.0694 11.0619 23.051 11.7519ZM35.208 7.18578L34.8951 8.91031C35.1943 8.87546 35.4913 8.8459 35.7884 8.82428C35.7134 8.82958 35.6385 8.83487 35.5636 8.84149C35.6908 8.27282 35.8039 7.67768 35.936 7.12445C35.6935 7.14122 35.451 7.16063 35.208 7.18578ZM22.3027 12.2742C22.7482 12.6188 23.1929 13.022 23.63 13.4323L23.6132 13.4447C23.7683 13.337 23.9235 13.2311 24.0787 13.1275L22.7735 11.9425C22.6161 12.0514 22.4596 12.1631 22.3027 12.2742ZM20.0124 9.43574C19.6165 9.74456 19.2224 10.0609 18.834 10.3913C18.6966 10.5073 18.568 10.6172 18.4479 10.7226C18.3592 10.8003 18.2706 10.8784 18.185 10.9556L19.1696 12.0748L19.2007 12.0488C19.3346 11.8245 19.5401 11.6513 19.7845 11.5569C20.2394 11.1825 20.699 10.8238 21.1633 10.4809L20.0124 9.43574ZM35.2683 6.85049C35.5188 6.82622 35.7706 6.80637 36.022 6.79093C36.088 6.53132 36.1691 6.27575 36.265 6.0255C36.4035 5.70341 36.6076 5.41335 36.8643 5.1736C36.4299 5.18242 35.995 5.20183 35.5618 5.23492L35.2683 6.85049ZM55.5423 8.65928L55.2032 8.33944L56.2672 7.04284L57.235 7.84841L56.6622 8.45679L57.6553 9.31001L58.2866 8.71399L59.0486 9.48162L57.8251 10.5921C57.2576 10.0626 55.5406 8.65928 55.5406 8.65928H55.5423ZM46.2616 2.74761C46.5276 2.84202 46.7862 2.93849 47.0375 3.03702C47.2887 3.13554 47.5434 3.23981 47.8018 3.3498C49.0855 3.91591 50.3255 4.57564 51.5116 5.3236L51.6029 5.38007L51.6791 5.4308L52.3189 4.08435L52.3579 3.99833L51.2833 3.31804L50.953 3.97582L50.8741 4.12538L49.5964 3.4698L49.9821 2.65981L48.9154 2.14409L48.5009 2.99863L47.0539 2.32805L47.3811 1.62218L46.576 1.24278L45.911 2.6329L46.2625 2.74584L46.2616 2.74761ZM47.7246 11.6151L47.7197 11.612L47.7246 11.6151ZM49.5423 8.4387L49.2475 9.84647C49.4582 9.96412 49.6676 10.0841 49.8757 10.2065C50.7382 10.7162 51.5726 11.2717 52.3752 11.8706L53.437 11.0972C52.4775 10.3197 51.4689 9.60428 50.4174 8.95531C50.1272 8.7762 49.8355 8.60399 49.5423 8.4387ZM48.9469 9.68236L49.2426 8.27061C48.7523 8.00179 48.2583 7.75047 47.7605 7.51665C47.9179 7.82466 48.0106 8.16136 48.0328 8.5062C48.0392 8.73911 48.0337 8.97221 48.0163 9.20457C48.3267 9.35721 48.637 9.51604 48.9473 9.68147L48.9469 9.68236ZM43.1605 9.65147C43.3206 9.7 43.6925 9.82794 43.7839 9.85044C44.0627 9.28914 44.3736 8.74415 44.7149 8.21811C44.5375 8.1612 44.3602 8.10562 44.1864 8.05268L43.1627 9.65059L43.1605 9.65147ZM50.6528 13.5276C50.835 13.6639 51.0173 13.8042 51.1986 13.9467C51.7028 13.4629 52.2455 13.0203 52.8212 12.6232C52.6722 12.5058 52.5215 12.3907 52.3716 12.2764L50.6528 13.5285V13.5276ZM52.0976 12.0717C51.3298 11.503 50.5326 10.9745 49.7094 10.4884C49.5321 10.3834 49.3548 10.2815 49.1774 10.1818L48.7501 12.2239C49.3054 12.5713 49.8548 12.9433 50.3984 13.3401L50.3837 13.3202L52.0985 12.0717H52.0976ZM45.1928 6.47726L44.3655 7.76591C44.5464 7.82106 44.7264 7.87886 44.9055 7.93797C45.2532 7.44734 45.7508 7.08143 46.3242 6.8946C46.0316 6.77843 45.7379 6.66784 45.4433 6.56284C45.359 6.53373 45.2761 6.50593 45.1928 6.47726ZM47.9858 9.55442C47.9201 10.2197 47.8022 10.9353 47.726 11.6151C47.9683 11.7513 48.2105 11.8925 48.4526 12.0386L48.8755 10.015C48.5812 9.8553 48.285 9.70089 47.9858 9.55442ZM56.6245 11.1426C56.5558 11.0747 56.484 11.0032 56.4028 10.9273C56.089 10.62 55.7712 10.3228 55.4497 10.0357L53.9681 11.1148C54.4176 11.4889 54.8618 11.8804 55.3007 12.2892C55.3823 12.3654 55.4618 12.4403 55.5392 12.5138L56.8351 11.3566C56.7602 11.2798 56.6892 11.2092 56.6232 11.1431L56.6245 11.1426ZM52.6465 12.0775C52.8039 12.1966 52.9608 12.3179 53.1151 12.4414C53.2998 12.3339 53.4925 12.2406 53.6914 12.1622C54.0553 12.1063 54.4272 12.1365 54.7771 12.2504C54.4225 11.927 54.0607 11.6156 53.6976 11.3147L52.6469 12.0792L52.6465 12.0775ZM39.6152 3.16672L39.4379 3.15393C38.2727 3.07739 37.1036 3.07915 35.9387 3.15922L35.6235 4.9014C37.0353 4.79971 38.4533 4.82171 39.8613 4.96713L39.6165 3.16672H39.6152ZM44.8731 6.37005C43.3671 5.87568 41.8158 5.53048 40.2416 5.33948L40.458 6.92769C41.6697 7.08188 42.8673 7.33013 44.0401 7.67018L44.8731 6.37005ZM40.505 7.26342L40.7297 9.06957C41.4389 9.19412 42.141 9.35611 42.8329 9.55486L43.8561 7.95827C42.7578 7.64494 41.6377 7.41269 40.505 7.26342ZM45.0549 6.08594L46.0267 4.47258L45.3985 4.16111L44.9853 5.10301L40.8654 3.95597L40.8947 3.29069H40.8823L40.8494 3.28672C40.6038 3.25716 40.3693 3.23245 40.1437 3.21083C40.0798 3.2051 40.0151 3.19848 39.949 3.19319L40.1964 5.00507C41.8487 5.19973 43.4766 5.5619 45.0549 6.08594ZM45.551 6.25579C46.8471 6.71623 48.1044 7.27858 49.3109 7.93753L49.6917 6.03609L49.611 5.99197C48.5693 5.45489 47.4923 4.98825 46.3875 4.59523L45.3736 6.19314C45.4335 6.2152 45.4916 6.23417 45.551 6.25579ZM49.611 8.10341C49.9388 8.28694 50.2639 8.47811 50.5863 8.67693C51.6743 9.34819 52.7168 10.0899 53.7069 10.8973L55.3318 9.71412L54.7084 9.20501L54.0049 9.79309L50.7003 7.31857L50.9219 6.71637L50.8922 6.69828C50.6754 6.57167 50.464 6.4499 50.2574 6.33697C50.1758 6.29285 50.092 6.24873 50.01 6.20462V6.20726L49.611 8.10429V8.10341ZM35.0835 1.64557C35.3637 1.61762 35.6388 1.59468 35.909 1.57674C36.1781 1.55821 36.4538 1.54409 36.7344 1.53262C38.0902 1.48107 39.448 1.53314 40.7958 1.68836L40.9031 1.69983L40.9918 1.71306V0.22632V0.132793H39.8533V0.760136L39.8457 0.929105L38.7724 0.896456V0H37.0261V0.929105H35.6195L35.6128 0.153086H34.7222L34.7164 1.69409L35.0835 1.64557ZM39.5682 7.16019C39.6919 7.72401 39.7788 8.33105 39.8555 8.93546L39.8089 8.93016C40.0046 8.95457 40.1992 8.98222 40.3928 9.0131L40.1676 7.22107C39.9681 7.19857 39.7686 7.17695 39.5682 7.16019ZM39.906 5.30066C39.476 5.25419 39.0455 5.21992 38.6146 5.19786C38.752 5.29993 38.8803 5.41358 38.9981 5.53757C39.217 5.94357 39.382 6.37616 39.4889 6.82446C39.7003 6.84255 39.9118 6.86328 40.1215 6.88666L39.906 5.29845V5.30066ZM37.598 32.055C37.7317 32.1592 37.827 32.3045 37.8691 32.4682C37.9112 32.632 37.8977 32.8049 37.8308 32.9603C38.2019 32.9603 38.0485 33.3339 37.9988 33.6335C39.19 33.3282 39.746 35.5195 40.3653 35.8649C39.4924 35.7674 39.1466 36.0273 38.3788 35.6982C38.1469 36.2536 37.6277 36.6206 37.1964 37.045C36.8695 36.6718 36.599 36.2534 36.3931 35.8027C35.7166 36.0409 35.0187 35.5852 34.2372 35.6982C35.0688 35.1688 35.4785 33.423 36.5425 33.6754C36.4993 33.5256 36.4962 33.3673 36.5333 33.2159C36.5705 33.0646 36.6467 32.9255 36.7544 32.8125C36.6577 32.3933 36.8071 32.1569 37.1343 32.055C36.8603 30.2462 35.8101 29.0184 34.4092 28.054C35.2466 28.3805 36.2548 28.4237 36.9242 27.7593C36.7123 27.0433 36.8386 26.6784 37.3041 26.58C37.9115 26.6683 37.8255 27.1536 37.6424 27.6958C38.1345 28.3205 39.0507 28.4961 40.391 28.2225C38.8864 29.168 37.7443 30.3251 37.598 32.0554V32.055ZM41.4759 29.8959L37.8773 32.6753C37.8715 32.7708 37.8559 32.8656 37.8308 32.958C38.0059 32.958 38.0635 33.0414 38.0706 33.1605L41.8101 30.2718L41.4759 29.8937V29.8959ZM41.6319 30.5065C41.9587 30.5457 42.2499 30.7138 42.2792 31.7695C42.1825 32.3726 41.9143 33.0886 42.0859 33.5933C41.5122 33.9304 41.4009 34.5238 40.8273 34.8613C40.6451 34.6131 40.5257 34.3249 40.4794 34.021C40.4331 33.7172 40.4612 33.4067 40.5613 33.116C40.6726 32.8293 40.7173 32.5214 40.6921 32.2151C40.6669 31.9088 40.5725 31.6122 40.4159 31.3473L41.1389 30.7919C41.303 30.6966 41.467 30.6018 41.6319 30.5069V30.5065ZM39.8214 30.6948C39.8657 30.7059 39.9907 30.7698 40.0479 30.739V30.7284H40.071C40.071 30.7182 40.1046 30.7068 40.1153 30.7068C40.136 30.6895 40.1586 30.6747 40.1827 30.6626V30.6415C40.2062 30.6415 40.2062 30.5973 40.2292 30.5973C40.2292 30.2982 39.9681 30.1915 39.7167 30.0631C39.676 30.048 39.638 30.0266 39.6041 29.9996C39.5926 29.9996 39.5478 29.9885 39.5478 29.9779C39.5137 29.9779 39.3997 29.9457 39.3656 29.9674V29.9779H39.3421C39.3421 29.9885 39.3204 29.9996 39.3089 29.9996C39.3062 30.0071 39.3017 30.0139 39.2959 30.0193C39.29 30.0248 39.2829 30.0287 39.2752 30.0309V30.0521C39.2526 30.0746 39.1732 30.2982 39.2526 30.2982C39.2547 30.3132 39.2583 30.328 39.2632 30.3424H39.2752C39.2751 30.3453 39.2756 30.3482 39.2767 30.3509C39.2778 30.3536 39.2795 30.356 39.2815 30.3581C39.2836 30.3601 39.2861 30.3618 39.2888 30.3628C39.2915 30.3639 39.2944 30.3645 39.2973 30.3644C39.2973 30.3746 39.3204 30.3957 39.3204 30.4085C39.3233 30.4085 39.3261 30.4091 39.3288 30.4102C39.3315 30.4113 39.3339 30.413 39.3359 30.415C39.3379 30.4171 39.3395 30.4195 39.3406 30.4222C39.3417 30.4249 39.3422 30.4277 39.3421 30.4306H39.355L39.3656 30.4509L37.6016 31.9998C37.6016 32.0184 37.5976 32.0378 37.5967 32.0567C37.718 32.1488 37.8073 32.2764 37.8521 32.4216L39.82 30.6966L39.8214 30.6948ZM35.1274 30.7063C35.083 30.7182 34.9655 30.7822 34.9115 30.7504V30.739H34.8906C34.8906 30.7288 34.8578 30.7187 34.8463 30.7187C34.8267 30.7013 34.8049 30.6865 34.7816 30.6745V30.6529C34.7594 30.6529 34.7594 30.6088 34.7372 30.6088C34.7372 30.3106 34.9846 30.2029 35.22 30.075C35.2594 30.0602 35.2958 30.0384 35.3273 30.0106C35.3379 30.0106 35.3809 30.0004 35.3809 29.9894C35.4142 29.9894 35.5215 29.9568 35.553 29.9788V29.9894H35.5747C35.5747 30.0004 35.596 30.0106 35.607 30.0106C35.6093 30.0183 35.6135 30.0253 35.6193 30.0309C35.625 30.0366 35.6321 30.0406 35.6399 30.0428V30.0644C35.6602 30.0865 35.7356 30.3106 35.6602 30.3106C35.6582 30.3256 35.6548 30.3403 35.6501 30.3547H35.6416C35.6417 30.3576 35.6412 30.3605 35.6401 30.3632C35.639 30.3659 35.6373 30.3684 35.6353 30.3704C35.6332 30.3725 35.6307 30.3741 35.628 30.3752C35.6253 30.3763 35.6224 30.3768 35.6195 30.3768C35.6195 30.3865 35.5977 30.4085 35.5977 30.4209C35.5949 30.4209 35.5921 30.4214 35.5895 30.4225C35.5869 30.4236 35.5845 30.4252 35.5825 30.4272C35.5805 30.4292 35.579 30.4316 35.5779 30.4343C35.5769 30.4369 35.5764 30.4397 35.5765 30.4425H35.5654L35.5547 30.4646L37.1064 31.8984C37.1161 31.9509 37.1246 32.0047 37.1321 32.0581C37.0052 32.0906 36.8929 32.1644 36.8129 32.2676L35.1283 30.7094L35.1274 30.7063ZM33.5611 29.9065L36.7287 32.4873C36.7171 32.5962 36.7251 32.7063 36.7522 32.8125C36.6897 32.8711 36.6386 32.9406 36.6014 33.0176L33.2441 30.285L33.5611 29.9065ZM33.413 30.5171C33.1027 30.5576 32.8282 30.7257 32.8012 31.7806C32.9338 32.3053 32.941 32.8536 32.822 33.3816C33.3638 33.7183 33.9058 34.0551 34.4482 34.3918C34.5825 33.9802 34.5752 33.5358 34.4273 33.1288C34.3215 32.8413 34.279 32.5346 34.3024 32.2293C34.3259 31.9241 34.4149 31.6274 34.5634 31.3592L33.8803 30.8025C33.7245 30.7081 33.5688 30.6129 33.413 30.5171ZM29.5002 22.2451H45.1201V25.8552H43.2625V24.0605H38.6244V25.8543H36.0451V24.0605H31.3595V25.8543H29.5006V24.0605L29.5002 22.2451Z" fill="#FCB16C"></path>
  <path d="M95.0137 40.6614H100.582V38.3861H95.0137V35.3034H101.025V33.0281H92.2478V46.0193H101.062V43.7807H95.0137V40.6614Z" fill="#2A454A"></path>
  <path d="M87.2324 33.7988C86.1998 33.2483 85.0197 32.9914 83.8396 33.0281H79.156V46.0193H83.8027C84.9828 46.056 86.1629 45.7991 87.2324 45.2487C88.1912 44.7349 88.9288 43.9642 89.445 43.0101C90.4776 40.8082 90.4776 38.2393 89.445 36.0374C88.9288 35.0832 88.1543 34.3125 87.2324 33.7988ZM87.0111 41.9091C86.7529 42.4963 86.3104 42.9734 85.7572 43.267C85.1303 43.5605 84.3927 43.7073 83.692 43.7073H81.9219V35.3768H83.692C84.3927 35.3401 85.0934 35.4869 85.7572 35.8172C86.3104 36.1108 86.7529 36.5878 87.0111 37.175C87.3061 37.909 87.4536 38.7163 87.4536 39.5237C87.4536 40.3311 87.3061 41.1384 87.0111 41.9091Z" fill="#2A454A"></path>
  <path d="M141.701 31.7803V31.8537H144.025L145.316 30.3124L146.606 31.8537H148.893V31.7803L146.311 28.9913H144.283L141.701 31.7803Z" fill="#2A454A"></path>
  <path d="M137.461 33.0281H134.695V46.0193H137.461V33.0281Z" fill="#2A454A"></path>
  <path d="M161.358 33.0281V41.2118H161.247L155.605 33.0281H153.171V46.056H155.937V37.8356H156.01L161.726 46.0193H164.087V33.0281H161.358Z" fill="#2A454A"></path>
  <path d="M113.084 41.1384H115.887C115.887 41.6155 115.776 42.0926 115.518 42.4963C115.297 42.9 114.928 43.2303 114.485 43.4504C113.969 43.6706 113.416 43.7807 112.863 43.7807C112.236 43.7807 111.609 43.6339 111.056 43.267C110.539 42.9 110.134 42.3862 109.876 41.799C109.581 41.065 109.433 40.2944 109.47 39.487C109.433 38.7163 109.581 37.909 109.876 37.175C110.134 36.5878 110.539 36.0741 111.056 35.7438C111.572 35.4135 112.199 35.23 112.826 35.23C113.158 35.23 113.49 35.2667 113.822 35.3768C114.117 35.4502 114.375 35.597 114.596 35.7438C114.817 35.9273 115.039 36.1108 115.186 36.3676C115.37 36.6245 115.481 36.8814 115.555 37.175H118.358C118.284 36.5511 118.063 35.964 117.768 35.4135C117.436 34.863 117.03 34.4226 116.551 34.0189C116.034 33.6153 115.481 33.3217 114.854 33.1015C114.19 32.8813 113.49 32.7712 112.789 32.7712C111.978 32.7712 111.129 32.918 110.392 33.2116C109.654 33.5052 108.991 33.9456 108.437 34.5327C107.847 35.1199 107.405 35.8539 107.147 36.6245C106.815 37.542 106.667 38.4962 106.667 39.4503C106.63 40.6614 106.888 41.9091 107.442 43.0101C107.921 43.9642 108.695 44.7716 109.617 45.3221C111.535 46.3496 113.822 46.3863 115.776 45.4689C116.624 45.0285 117.325 44.3679 117.768 43.5605C118.284 42.6798 118.542 41.6522 118.505 40.6247V38.9732H113.084V41.1384Z" fill="#2A454A"></path>
  <path d="M180.313 46.056H183.263L178.764 33.0648H175.187L170.688 46.056H173.638L174.597 43.0835H179.317L180.313 46.056ZM175.334 40.9183L176.957 36.0007H177.068L178.69 40.9183H175.334Z" fill="#2A454A"></path>
  <path d="M169.139 33.0281H166.373V46.0193H169.139V33.0281Z" fill="#2A454A"></path>
  <path d="M131.855 35.9273C131.376 34.9731 130.601 34.2024 129.642 33.652C127.688 32.6244 125.364 32.6244 123.41 33.652C122.488 34.2024 121.713 34.9731 121.234 35.9273C120.165 38.2026 120.165 40.8816 121.234 43.1569C121.713 44.111 122.488 44.9184 123.41 45.4322C125.364 46.4964 127.688 46.4964 129.642 45.4322C130.564 44.8817 131.339 44.111 131.855 43.1569C132.924 40.8449 132.924 38.2026 131.855 35.9273ZM129.421 41.8724C129.2 42.4596 128.794 42.9367 128.278 43.3037C127.208 43.9642 125.844 43.9642 124.774 43.3037C124.258 42.9367 123.852 42.4596 123.631 41.8724C123.078 40.3678 123.078 38.7164 123.631 37.2117C123.852 36.6245 124.258 36.1475 124.774 35.7805C125.844 35.1199 127.208 35.1199 128.278 35.7805C128.794 36.1475 129.2 36.6245 129.421 37.2117C129.974 38.7164 129.974 40.3678 129.421 41.8724Z" fill="#2A454A"></path>
  <path d="M143.545 33.0281L139.046 46.0193H141.997L142.955 43.0468H147.676L148.635 46.0193H151.585L147.086 33.0281H143.545ZM143.656 40.9183L145.279 36.0007H145.389L147.012 40.9183H143.656Z" fill="#2A454A"></path>
  <path d="M81.7744 24.4773H83.9871C84.8353 24.514 85.6835 24.3305 86.4579 23.9636C87.1217 23.6333 87.638 23.1195 88.0068 22.4956C88.3756 21.835 88.56 21.0644 88.56 20.2937C88.56 19.523 88.3756 18.7891 88.0437 18.0918C87.6749 17.4679 87.1586 16.9542 86.4948 16.5872C85.7572 16.2202 84.909 16.0367 84.0608 16.0367H79.1191V28.5142H81.7744V24.4773ZM83.5445 18.2019C83.9871 18.2019 84.4296 18.2753 84.8353 18.4588C85.1672 18.6056 85.4253 18.8625 85.5728 19.1928C85.7572 19.523 85.831 19.89 85.831 20.2937C85.831 20.6607 85.7572 21.0277 85.5728 21.3947C85.3884 21.725 85.1303 21.9818 84.8353 22.1286C84.4296 22.3121 84.0239 22.4222 83.5814 22.3855H81.7744V18.2019H83.5445Z" fill="#2A454A"></path>
  <path d="M129.642 28.5142V26.349H123.816V23.3397H129.163V21.1745H123.816V18.2019H129.605V16.0367H121.16V28.5142H129.642Z" fill="#2A454A"></path>
  <path d="M139.378 28.5142H141.997V18.2019H145.832V16.0367H135.543V18.2019H139.378V28.5142Z" fill="#2A454A"></path>
  <path d="M92.6535 24.0737H94.608L96.9682 28.4775H99.8816L97.2264 23.6333C97.2632 23.6333 97.3001 23.5966 97.337 23.5966C98.0008 23.303 98.5171 22.8259 98.8859 22.2387C99.2547 21.5782 99.439 20.8442 99.439 20.1102C99.439 19.3763 99.2915 18.6056 98.9228 17.945C98.554 17.3211 98.0377 16.8441 97.3739 16.5138C96.5994 16.1468 95.7881 16 94.9399 16H90.0351V28.4775H92.6903V24.0737H92.6535ZM94.4605 18.2019C94.903 18.2019 95.3087 18.2753 95.7143 18.4221C96.0462 18.5689 96.3044 18.7891 96.4519 19.0827C96.6363 19.413 96.7101 19.7799 96.7101 20.1469C96.7101 20.5139 96.6363 20.8442 96.4519 21.1745C96.2675 21.4681 96.0094 21.6883 95.7143 21.7984C95.3087 21.9451 94.8661 22.0185 94.4605 22.0185H92.6535V18.2019H94.4605Z" fill="#2A454A"></path>
  <path d="M109.544 28.5142V26.349H103.717V23.3397H109.064V21.1745H103.717V18.2019H109.507V16.0367H101.062V28.5142H109.544Z" fill="#2A454A"></path>
  <path d="M166.926 23.5966C167.59 23.303 168.106 22.8259 168.475 22.2387C168.844 21.5782 169.028 20.8442 169.028 20.1102C169.028 19.3763 168.881 18.6056 168.512 17.945C168.143 17.3211 167.627 16.8441 166.963 16.5138C166.189 16.1468 165.377 16 164.529 16H159.587V28.4775H162.243V24.0737H164.16L166.521 28.4775H169.434L166.779 23.6333C166.852 23.6333 166.889 23.6333 166.926 23.5966ZM164.013 18.2019C164.455 18.2019 164.861 18.2753 165.267 18.4221C165.599 18.5689 165.857 18.7891 166.004 19.0827C166.189 19.413 166.262 19.7799 166.262 20.1469C166.262 20.5139 166.189 20.8442 166.004 21.1745C165.82 21.4681 165.562 21.6883 165.267 21.7984C164.861 21.9451 164.418 22.0185 164.013 22.0185H162.206V18.2019H164.013Z" fill="#2A454A"></path>
  <path d="M173.749 25.6517H178.285L179.207 28.4775H182.046L177.695 16.0367H174.265L169.95 28.5142H172.79L173.749 25.6517ZM176.035 18.8992L177.584 23.6333H174.412L175.961 18.8992H176.035Z" fill="#2A454A"></path>
  <path d="M157.67 24.1471V16.0367H155.015V23.8902C155.015 24.3305 154.904 24.7709 154.683 25.1746C154.461 25.5416 154.166 25.8352 153.798 26.0554C152.949 26.4591 151.954 26.4591 151.105 26.0554C150.737 25.8719 150.442 25.5416 150.22 25.1746C149.999 24.7709 149.888 24.3672 149.888 23.8902V16.0367H147.233V24.1471C147.196 25.8352 148.155 27.4132 149.704 28.1105C151.437 28.8811 153.429 28.8811 155.162 28.1105C156.748 27.4132 157.744 25.8352 157.67 24.1471Z" fill="#2A454A"></path>
  <path d="M111.351 28.5142H114.006V23.3397H119.095V21.1745H114.006V18.2019H119.648V16.0367H111.351V28.5142Z" fill="#2A454A"></path>
  <path d="M131.449 16.0367V28.5142H134.105V16.0367H131.449Z" fill="#2A454A"></path>
  <defs>
    <linearGradient id="paint0_linear_4642_2392" x1="14.5996" y1="30.8248" x2="18.2088" y2="30.8248" gradientUnits="userSpaceOnUse">
      <stop stop-color="#FEFEFE"></stop>
      <stop offset="0.369" stop-color="#FEFEFE"></stop>
      <stop offset="0.8" stop-color="#BAB8B8"></stop>
      <stop offset="1" stop-color="#898888"></stop>
    </linearGradient>
  </defs>
</svg>
